<svg xmlns="http://www.w3.org/2000/svg" xmlns:xlink="http://www.w3.org/1999/xlink" xmlns:lucid="lucid" width="1512" height="1302"><g transform="translate(-124 -18)" lucid:page-tab-id="0_0"><path d="M0 0h1760v1360H0z" fill="#fff"/><path d="M386.46 381.95h197.17v131.7H386.46z" stroke="#000" stroke-width="3" fill="#fff"/><use xlink:href="#a" transform="matrix(1,0,0,1,391.4612822647794,386.95121951219505) translate(5.86666666666666 67.25777777777778)"/><use xlink:href="#b" transform="matrix(1,0,0,1,391.4612822647794,386.95121951219505) translate(50.222222222222214 67.25777777777778)"/><use xlink:href="#c" transform="matrix(1,0,0,1,391.4612822647794,386.95121951219505) translate(103.00444444444445 67.25777777777778)"/><use xlink:href="#d" transform="matrix(1,0,0,1,391.4612822647794,386.95121951219505) translate(150.6488888888889 67.25777777777778)"/><path d="M340.17 447.8H364.34" stroke="#000" stroke-width="3" fill="none"/><path d="M340.2 449.3h-1.53v-3h1.54z"/><path d="M380.1 447.8l-14.26 4.64v-9.27z" stroke="#000" stroke-width="3"/><path d="M618.75 557.56H780.8l-35.12 131.7H583.63z" stroke="#000" stroke-width="3" fill="#fff"/><use xlink:href="#e" transform="matrix(1,0,0,1,588.6303080766029,562.5609756097562) translate(54.19555555555556 67.25777777777778)"/><use xlink:href="#f" transform="matrix(1,0,0,1,588.6303080766029,562.5609756097562) translate(96.00888888888889 67.25777777777778)"/><path d="M632.92 381.95H830.1v131.7H632.9z" stroke="#000" stroke-width="3" fill="#fff"/><use xlink:href="#g" transform="matrix(1,0,0,1,637.9225645295586,386.95121951219505) translate(10.426666666666677 56.94666666666667)"/><use xlink:href="#h" transform="matrix(1,0,0,1,637.9225645295586,386.95121951219505) translate(54.96000000000001 56.94666666666667)"/><use xlink:href="#i" transform="matrix(1,0,0,1,637.9225645295586,386.95121951219505) translate(160.89777777777778 56.94666666666667)"/><use xlink:href="#j" transform="matrix(1,0,0,1,637.9225645295586,386.95121951219505) translate(8.168888888888901 77.56888888888889)"/><use xlink:href="#k" transform="matrix(1,0,0,1,637.9225645295586,386.95121951219505) translate(48.24000000000001 77.56888888888889)"/><use xlink:href="#l" transform="matrix(1,0,0,1,637.9225645295586,386.95121951219505) translate(90.21333333333334 77.56888888888889)"/><use xlink:href="#m" transform="matrix(1,0,0,1,637.9225645295586,386.95121951219505) translate(111.74222222222222 77.56888888888889)"/><use xlink:href="#n" transform="matrix(1,0,0,1,637.9225645295586,386.95121951219505) translate(143.36888888888888 77.56888888888889)"/><path d="M1120 360h197.17v131.7H1120z" stroke="#000" stroke-width="3" fill="#fff"/><use xlink:href="#o" transform="matrix(1,0,0,1,1125,365) translate(11.48444444444445 56.94666666666667)"/><use xlink:href="#p" transform="matrix(1,0,0,1,1125,365) translate(51.68000000000001 56.94666666666667)"/><use xlink:href="#q" transform="matrix(1,0,0,1,1125,365) translate(94.4 56.94666666666667)"/><use xlink:href="#r" transform="matrix(1,0,0,1,1125,365) translate(35.58222222222222 77.56888888888889)"/><use xlink:href="#s" transform="matrix(1,0,0,1,1125,365) translate(101.32444444444445 77.56888888888889)"/><use xlink:href="#t" transform="matrix(1,0,0,1,1125,365) translate(123.0311111111111 77.56888888888889)"/><path d="M879.38 557.56h197.17v131.7c-32.92-22-53.43-22-65.85-22-19.72 0-45.94 22-65.66 22-12.22 0-32.93 0-65.66-22z" stroke="#000" stroke-width="3" fill="#fff"/><use xlink:href="#u" transform="matrix(1,0,0,1,884.383846794338,562.5609756097562) translate(2.6311111111111103 35.635555555555555)"/><use xlink:href="#v" transform="matrix(1,0,0,1,884.383846794338,562.5609756097562) translate(41.81333333333333 35.635555555555555)"/><use xlink:href="#w" transform="matrix(1,0,0,1,884.383846794338,562.5609756097562) translate(129.29777777777778 35.635555555555555)"/><use xlink:href="#k" transform="matrix(1,0,0,1,884.383846794338,562.5609756097562) translate(0.3822222222222251 56.257777777777775)"/><use xlink:href="#x" transform="matrix(1,0,0,1,884.383846794338,562.5609756097562) translate(42.355555555555554 56.257777777777775)"/><use xlink:href="#y" transform="matrix(1,0,0,1,884.383846794338,562.5609756097562) translate(80.54222222222222 56.257777777777775)"/><use xlink:href="#z" transform="matrix(1,0,0,1,884.383846794338,562.5609756097562) translate(101.39555555555555 56.257777777777775)"/><use xlink:href="#A" transform="matrix(1,0,0,1,884.383846794338,562.5609756097562) translate(118.14222222222222 56.257777777777775)"/><use xlink:href="#B" transform="matrix(1,0,0,1,884.383846794338,562.5609756097562) translate(84.35555555555555 76.88000000000001)"/><path d="M833.1 447.8h144.87v87.64" stroke="#000" stroke-width="3" fill="none"/><path d="M833.13 449.3h-1.54v-3h1.53z"/><path d="M977.97 551.2l-4.64-14.26h9.27z" stroke="#000" stroke-width="3"/><path d="M1372.3 360h197.18v131.7H1372.3z" stroke="#000" stroke-width="3" fill="#fff"/><path d="M1392.02 360v131.7M1549.76 360v131.7" stroke="#000" stroke-width="3" fill="none"/><use xlink:href="#C" transform="matrix(1,0,0,1,1401.9525395503747,365) translate(11.408888888888889 36.32444444444444)"/><use xlink:href="#D" transform="matrix(1,0,0,1,1401.9525395503747,365) translate(19.764444444444443 36.32444444444444)"/><use xlink:href="#E" transform="matrix(1,0,0,1,1401.9525395503747,365) translate(74.39555555555555 36.32444444444444)"/><use xlink:href="#F" transform="matrix(1,0,0,1,1401.9525395503747,365) translate(116.49333333333334 36.32444444444444)"/><use xlink:href="#G" transform="matrix(1,0,0,1,1401.9525395503747,365) translate(15.977777777777774 56.94666666666667)"/><use xlink:href="#H" transform="matrix(1,0,0,1,1401.9525395503747,365) translate(57.4 56.94666666666667)"/><use xlink:href="#s" transform="matrix(1,0,0,1,1401.9525395503747,365) translate(90.96444444444445 56.94666666666667)"/><use xlink:href="#I" transform="matrix(1,0,0,1,1401.9525395503747,365) translate(112.67111111111112 56.94666666666667)"/><use xlink:href="#J" transform="matrix(1,0,0,1,1401.9525395503747,365) translate(23.817777777777778 77.56888888888889)"/><use xlink:href="#K" transform="matrix(1,0,0,1,1401.9525395503747,365) translate(41.42666666666667 98.19111111111113)"/><path d="M1372.3 557.56h197.18v131.7H1372.3z" stroke="#000" stroke-width="3" fill="#fff"/><path d="M1392.02 557.56v131.7m157.74-131.7v131.7" stroke="#000" stroke-width="3" fill="none"/><use xlink:href="#L" transform="matrix(1,0,0,1,1401.9525395503747,562.5609756097562) translate(21.00888888888889 46.635555555555555)"/><use xlink:href="#M" transform="matrix(1,0,0,1,1401.9525395503747,562.5609756097562) translate(62.43111111111111 46.635555555555555)"/><use xlink:href="#N" transform="matrix(1,0,0,1,1401.9525395503747,562.5609756097562) translate(24.191111111111113 67.25777777777778)"/><use xlink:href="#O" transform="matrix(1,0,0,1,1401.9525395503747,562.5609756097562) translate(70.07555555555555 67.25777777777778)"/><use xlink:href="#P" transform="matrix(1,0,0,1,1401.9525395503747,562.5609756097562) translate(98.96444444444444 67.25777777777778)"/><use xlink:href="#Q" transform="matrix(1,0,0,1,1401.9525395503747,562.5609756097562) translate(46.662222222222226 87.88000000000001)"/><path d="M324.85 755.12L460.4 853.9l-135.55 98.78L189.3 853.9z" stroke="#000" stroke-width="3" fill="#fff"/><use xlink:href="#R" transform="matrix(1,0,0,1,194.29225645295588,760.1219512195121) translate(12.893333333333345 89.94666666666667)"/><use xlink:href="#S" transform="matrix(1,0,0,1,194.29225645295588,760.1219512195121) translate(29.604444444444457 89.94666666666667)"/><use xlink:href="#T" transform="matrix(1,0,0,1,194.29225645295588,760.1219512195121) translate(45.56888888888891 89.94666666666667)"/><use xlink:href="#z" transform="matrix(1,0,0,1,194.29225645295588,760.1219512195121) translate(94.42222222222225 89.94666666666667)"/><use xlink:href="#U" transform="matrix(1,0,0,1,194.29225645295588,760.1219512195121) translate(111.16888888888892 89.94666666666667)"/><use xlink:href="#V" transform="matrix(1,0,0,1,194.29225645295588,760.1219512195121) translate(151.3466666666667 89.94666666666667)"/><use xlink:href="#W" transform="matrix(1,0,0,1,194.29225645295588,760.1219512195121) translate(186.3688888888889 89.94666666666667)"/><use xlink:href="#P" transform="matrix(1,0,0,1,194.29225645295588,760.1219512195121) translate(234.26222222222222 89.94666666666667)"/><use xlink:href="#X" transform="matrix(1,0,0,1,194.29225645295588,760.1219512195121) translate(104.50222222222223 110.56888888888889)"/><path d="M1572.48 623.4H1620v109.77H140V853.9h26.13" stroke="#000" stroke-width="3" fill="none"/><path d="M1572.5 624.9H1571v-3h1.53z"/><path d="M181.9 853.9l-14.27 4.64v-9.27z" stroke="#000" stroke-width="3"/><use xlink:href="#Y" transform="matrix(1,0,0,1,590.7618463167589,737.1707317073169) translate(0 16.56888888888889)"/><use xlink:href="#j" transform="matrix(1,0,0,1,590.7618463167589,737.1707317073169) translate(78.18666666666667 16.56888888888889)"/><use xlink:href="#Z" transform="matrix(1,0,0,1,590.7618463167589,737.1707317073169) translate(118.25777777777778 16.56888888888889)"/><use xlink:href="#Q" transform="matrix(1,0,0,1,590.7618463167589,737.1707317073169) translate(165.65333333333334 16.56888888888889)"/><path d="M335.55 974.63l135.56 98.78-135.55 98.8L200 1073.4z" stroke="#000" stroke-width="3" fill="#fff"/><use xlink:href="#aa" transform="matrix(1,0,0,1,205,979.6341463414635) translate(72.34222222222222 100.25777777777778)"/><use xlink:href="#ab" transform="matrix(1,0,0,1,205,979.6341463414635) translate(88.30666666666667 100.25777777777778)"/><use xlink:href="#ac" transform="matrix(1,0,0,1,205,979.6341463414635) translate(123.3111111111111 100.25777777777778)"/><use xlink:href="#Q" transform="matrix(1,0,0,1,205,979.6341463414635) translate(144.98222222222222 100.25777777777778)"/><path d="M337.05 1218.5h54.22v3h-57.22v-45.95h3zm224.46 0v3h-81.04v-3z"/><path d="M337.05 1175.6h-3v-2.64l1.5 1.1 1.5-1.1zM577.28 1220l-14.27 4.64v-9.28z"/><path d="M582.13 1220l-20.62 6.7v-13.4zm-17.62 2.57l7.92-2.57-7.9-2.57z"/><use xlink:href="#ad" transform="matrix(1,0,0,1,391.2720233474086,1209.6888888888889) translate(0 16.56888888888889)"/><path d="M420 38h920v202H420z" stroke="#000" stroke-opacity="0" stroke-width="2" fill="#fff" fill-opacity="0"/><use xlink:href="#ae" transform="matrix(1,0,0,1,425,43) translate(3.519999999999982 77.75999999999999)"/><use xlink:href="#af" transform="matrix(1,0,0,1,425,43) translate(375.20000000000005 77.75999999999999)"/><use xlink:href="#ag" transform="matrix(1,0,0,1,425,43) translate(574.32 77.75999999999999)"/><use xlink:href="#ah" transform="matrix(1,0,0,1,425,43) translate(298.64 170.56)"/><path d="M464.45 853.9h20.6V738.17c-2.77 0-5-2.24-5-5s2.23-5 5-5v-192.4" stroke="#000" stroke-width="3" fill="none"/><path d="M464.5 855.4h-3.6l2.05-1.5-2.06-1.5h3.6z"/><path d="M485.05 520l4.63 14.28h-9.27z" stroke="#000" stroke-width="3"/><use xlink:href="#ai" transform="matrix(1,0,0,1,449.2057951706911,822.486046349259) translate(0 16.56888888888889)"/><path d="M475.15 1073.4h8.43V874.53" stroke="#000" stroke-width="3" fill="none"/><path d="M475.2 1074.9h-3.6l2.05-1.5-2.05-1.5h3.6z"/><path d="M483.58 858.76l4.64 14.26h-9.27z" stroke="#000" stroke-width="3"/><use xlink:href="#ai" transform="matrix(1,0,0,1,469.6999430703474,1077.405004995424) translate(0 16.56888888888889)"/><path d="M536.32 516.66V623.4h42.7" stroke="#000" stroke-width="3" fill="none"/><path d="M537.82 516.7h-3v-1.54h3z"/><path d="M594.78 623.4l-14.26 4.65v-9.27z" stroke="#000" stroke-width="3"/><path d="M766.3 623.4h40.5V535.8" stroke="#000" stroke-width="3" fill="none"/><path d="M766.33 624.9h-1.94l.8-3h1.13z"/><path d="M806.8 520l4.64 14.28h-9.27z" stroke="#000" stroke-width="3"/><g fill="none"><path d="M867.5 769.27v-80h220.94v80z"/><path d="M1088.44 689.27c0 7.62-6.2 13.8-13.8 13.8h-82.86c-7.63 0-13.8 6.2-13.8 13.82 0-7.64-6.2-13.82-13.82-13.82H881.3c-7.62 0-13.8-6.2-13.8-13.8" stroke="#000" stroke-width="3"/></g><path d="M897.97 840h128l32 32v240.3h-160z" stroke="#d9be60" stroke-width="3" fill="#ffdf71"/><path d="M1025.97 840v32h32" fill="#d9be60"/><g><use xlink:href="#aj" transform="matrix(1,0,0,1,902.9683597002877,845) translate(8 16.56888888888889)"/><use xlink:href="#ak" transform="matrix(1,0,0,1,902.9683597002877,845) translate(45.08444444444444 16.56888888888889)"/><use xlink:href="#al" transform="matrix(1,0,0,1,902.9683597002877,845) translate(82.89777777777778 16.56888888888889)"/><use xlink:href="#am" transform="matrix(1,0,0,1,902.9683597002877,845) translate(8 37.19111111111111)"/><use xlink:href="#an" transform="matrix(1,0,0,1,902.9683597002877,845) translate(49.35111111111111 37.19111111111111)"/><use xlink:href="#ao" transform="matrix(1,0,0,1,902.9683597002877,845) translate(71.05777777777777 37.19111111111111)"/><use xlink:href="#ap" transform="matrix(1,0,0,1,902.9683597002877,845) translate(8 57.81333333333333)"/><use xlink:href="#aq" transform="matrix(1,0,0,1,902.9683597002877,845) translate(39.626666666666665 57.81333333333333)"/><use xlink:href="#ar" transform="matrix(1,0,0,1,902.9683597002877,845) translate(64.92444444444445 57.81333333333333)"/><use xlink:href="#as" transform="matrix(1,0,0,1,902.9683597002877,845) translate(99.89333333333335 57.81333333333333)"/><use xlink:href="#at" transform="matrix(1,0,0,1,902.9683597002877,845) translate(8 78.43555555555557)"/><use xlink:href="#au" transform="matrix(1,0,0,1,902.9683597002877,845) translate(46.61333333333333 78.43555555555557)"/><use xlink:href="#av" transform="matrix(1,0,0,1,902.9683597002877,845) translate(60.142222222222216 78.43555555555557)"/><use xlink:href="#aw" transform="matrix(1,0,0,1,902.9683597002877,845) translate(8 99.05777777777779)"/><use xlink:href="#ax" transform="matrix(1,0,0,1,902.9683597002877,845) translate(107.91111111111111 99.05777777777779)"/><use xlink:href="#ay" transform="matrix(1,0,0,1,902.9683597002877,845) translate(8 119.68)"/><use xlink:href="#az" transform="matrix(1,0,0,1,902.9683597002877,845) translate(62.15111111111111 119.68)"/><use xlink:href="#aA" transform="matrix(1,0,0,1,902.9683597002877,845) translate(108.56888888888889 119.68)"/><use xlink:href="#aB" transform="matrix(1,0,0,1,902.9683597002877,845) translate(8 140.3022222222222)"/><use xlink:href="#aC" transform="matrix(1,0,0,1,902.9683597002877,845) translate(41.17333333333333 140.3022222222222)"/><use xlink:href="#aD" transform="matrix(1,0,0,1,902.9683597002877,845) translate(98.29333333333332 140.3022222222222)"/><use xlink:href="#am" transform="matrix(1,0,0,1,902.9683597002877,845) translate(8 160.92444444444445)"/><use xlink:href="#ap" transform="matrix(1,0,0,1,902.9683597002877,845) translate(49.35111111111111 160.92444444444445)"/><use xlink:href="#aE" transform="matrix(1,0,0,1,902.9683597002877,845) translate(80.97777777777777 160.92444444444445)"/><use xlink:href="#aF" transform="matrix(1,0,0,1,902.9683597002877,845) translate(96.94222222222223 160.92444444444445)"/><use xlink:href="#an" transform="matrix(1,0,0,1,902.9683597002877,845) translate(8 181.54666666666668)"/><use xlink:href="#aG" transform="matrix(1,0,0,1,902.9683597002877,845) translate(29.706666666666667 181.54666666666668)"/><use xlink:href="#aD" transform="matrix(1,0,0,1,902.9683597002877,845) translate(101.08444444444444 181.54666666666668)"/><use xlink:href="#aH" transform="matrix(1,0,0,1,902.9683597002877,845) translate(8 202.16888888888892)"/><use xlink:href="#aI" transform="matrix(1,0,0,1,902.9683597002877,845) translate(47.39555555555556 202.16888888888892)"/><use xlink:href="#aJ" transform="matrix(1,0,0,1,902.9683597002877,845) translate(8 222.79111111111115)"/><use xlink:href="#aK" transform="matrix(1,0,0,1,902.9683597002877,845) translate(83.46666666666667 222.79111111111115)"/><use xlink:href="#ap" transform="matrix(1,0,0,1,902.9683597002877,845) translate(8 243.41333333333338)"/><use xlink:href="#aL" transform="matrix(1,0,0,1,902.9683597002877,845) translate(39.626666666666665 243.41333333333338)"/></g><path d="M1151.46 840h128l32 32v128h-160z" stroke="#d9be60" stroke-width="3" fill="#ffdf71"/><path d="M1279.46 840v32h32" fill="#d9be60"/><g><use xlink:href="#aj" transform="matrix(1,0,0,1,1156.460891965029,845) translate(8 16.56888888888889)"/><use xlink:href="#aM" transform="matrix(1,0,0,1,1156.460891965029,845) translate(45.08444444444444 16.56888888888889)"/><use xlink:href="#aN" transform="matrix(1,0,0,1,1156.460891965029,845) translate(77.56444444444443 16.56888888888889)"/><use xlink:href="#aO" transform="matrix(1,0,0,1,1156.460891965029,845) translate(8 37.19111111111111)"/><use xlink:href="#aP" transform="matrix(1,0,0,1,1156.460891965029,845) translate(50.72 37.19111111111111)"/><use xlink:href="#aQ" transform="matrix(1,0,0,1,1156.460891965029,845) translate(8 57.81333333333333)"/><use xlink:href="#am" transform="matrix(1,0,0,1,1156.460891965029,845) translate(53.49333333333333 57.81333333333333)"/><use xlink:href="#aR" transform="matrix(1,0,0,1,1156.460891965029,845) translate(94.84444444444443 57.81333333333333)"/><use xlink:href="#ap" transform="matrix(1,0,0,1,1156.460891965029,845) translate(8 78.43555555555557)"/><use xlink:href="#aS" transform="matrix(1,0,0,1,1156.460891965029,845) translate(39.626666666666665 78.43555555555557)"/></g><g fill="none"><path d="M1340 689.27v80h-220.94v-80z"/><path d="M1119.06 689.27c0 7.62 6.18 13.8 13.8 13.8h82.86c7.63 0 13.8 6.2 13.8 13.82 0-7.64 6.2-13.82 13.82-13.82h82.85c7.62 0 13.8-6.2 13.8-13.8" stroke="#000" stroke-width="3"/></g><path d="M1232.53 730.77v50.56l1.05.43.88 2.12v28.65" fill="none"/><path d="M1232.53 730.77v13.77m0 13.78v23l1.05.44.88 2.12v1.1m0 13.78v13.77" stroke="#000" stroke-width="3" fill="none"/><path d="M1226.53 730.77v53.1l.88 2.14 1.06.44v26.1" fill="none"/><path d="M1226.53 730.77v13.77m0 13.78v25.56l.76 1.83m1.16 13.06v13.77M1232.53 730.8v-4.53M1226.53 730.8v-4.53" stroke="#000" stroke-width="3" fill="none"/><path d="M1231.46 835.55l-12.73-21.52h25.46z" stroke="#000" stroke-width="3" fill="#fff"/><path d="M1393.56 840h128l32 32v128h-160z" stroke="#d9be60" stroke-width="3" fill="#ffdf71"/><path d="M1521.56 840v32h32" fill="#d9be60"/><g><use xlink:href="#aT" transform="matrix(1,0,0,1,1398.5575908964192,845) translate(8 16.56888888888889)"/><use xlink:href="#aU" transform="matrix(1,0,0,1,1398.5575908964192,845) translate(57.6711111111111 16.56888888888889)"/><use xlink:href="#aV" transform="matrix(1,0,0,1,1398.5575908964192,845) translate(71.94666666666666 16.56888888888889)"/><use xlink:href="#aW" transform="matrix(1,0,0,1,1398.5575908964192,845) translate(8 37.19111111111111)"/><use xlink:href="#aX" transform="matrix(1,0,0,1,1398.5575908964192,845) translate(73.08444444444444 37.19111111111111)"/><use xlink:href="#aY" transform="matrix(1,0,0,1,1398.5575908964192,845) translate(8 57.81333333333333)"/><use xlink:href="#aZ" transform="matrix(1,0,0,1,1398.5575908964192,845) translate(50.09777777777778 57.81333333333333)"/><use xlink:href="#ba" transform="matrix(1,0,0,1,1398.5575908964192,845) translate(102.73777777777778 57.81333333333333)"/><use xlink:href="#bb" transform="matrix(1,0,0,1,1398.5575908964192,845) translate(8 78.43555555555557)"/><use xlink:href="#bc" transform="matrix(1,0,0,1,1398.5575908964192,845) translate(8 99.05777777777779)"/></g><path d="M980.97 730.77v81.76" fill="none"/><path d="M980.97 730.77v13.63m0 13.62V785.28m0 13.63v13.63" stroke="#000" stroke-width="3" fill="none"/><path d="M974.97 730.77v81.76" fill="none"/><path d="M974.97 730.77v13.63m0 13.62V785.28m0 13.63v13.63M980.97 730.8v-4.53M974.97 730.8v-4.53" stroke="#000" stroke-width="3" fill="none"/><path d="M977.97 835.55l-12.73-21.52h25.45z" stroke="#000" stroke-width="3" fill="#fff"/><path d="M760 240h240v60H760z" stroke="#000" stroke-opacity="0" stroke-width="2" fill="#fff" fill-opacity="0"/><g><use xlink:href="#bd" transform="matrix(1,0,0,1,765,245) translate(57.976 20.896)"/><use xlink:href="#be" transform="matrix(1,0,0,1,765,245) translate(104.398 20.896)"/><use xlink:href="#bf" transform="matrix(1,0,0,1,765,245) translate(37.55500000000001 41.775999999999996)"/></g><path d="M1125.85 557.56H1323v131.7h-197.15z" stroke="#000" stroke-width="3" fill="#fff"/><g><use xlink:href="#bg" transform="matrix(1,0,0,1,1130.8451290591174,562.560975609756) translate(12.204444444444434 46.635555555555555)"/><use xlink:href="#bh" transform="matrix(1,0,0,1,1130.8451290591174,562.560975609756) translate(80.66666666666667 46.635555555555555)"/><use xlink:href="#k" transform="matrix(1,0,0,1,1130.8451290591174,562.560975609756) translate(116.3288888888889 46.635555555555555)"/><use xlink:href="#bi" transform="matrix(1,0,0,1,1130.8451290591174,562.560975609756) translate(158.3022222222222 46.635555555555555)"/><use xlink:href="#b" transform="matrix(1,0,0,1,1130.8451290591174,562.560975609756) translate(9.679999999999993 67.25777777777778)"/><use xlink:href="#bj" transform="matrix(1,0,0,1,1130.8451290591174,562.560975609756) translate(62.462222222222216 67.25777777777778)"/><use xlink:href="#bk" transform="matrix(1,0,0,1,1130.8451290591174,562.560975609756) translate(96.80888888888889 67.25777777777778)"/><use xlink:href="#s" transform="matrix(1,0,0,1,1130.8451290591174,562.560975609756) translate(57.67111111111111 87.88000000000001)"/><use xlink:href="#bl" transform="matrix(1,0,0,1,1130.8451290591174,562.560975609756) translate(79.37777777777778 87.88000000000001)"/></g><path d="M1079.55 623.4h24.18" stroke="#000" stroke-width="3" fill="none"/><path d="M1079.6 624.9h-1.55v-3h1.54z"/><path d="M1119.5 623.4l-14.27 4.65v-9.27z" stroke="#000" stroke-width="3"/><path d="M1224.43 554.56v-40.73" stroke="#000" stroke-width="3" fill="none"/><path d="M1225.93 556.06h-3v-1.54h3z"/><path d="M1224.43 498.06l4.63 14.27h-9.27z" stroke="#000" stroke-width="3"/><path d="M1320.17 425.85h30.02" stroke="#000" stroke-width="3" fill="none"/><path d="M1320.2 427.35h-1.53v-3h1.54z"/><path d="M1365.95 425.85l-14.26 4.64v-9.28z" stroke="#000" stroke-width="3"/><path d="M1470.9 494.7v40.74" stroke="#000" stroke-width="3" fill="none"/><path d="M1472.4 494.75h-3v-1.54h3z"/><path d="M1470.9 551.2l-4.64-14.26h9.27z" stroke="#000" stroke-width="3"/><path d="M140 855.4v218h36.83M140 855.44v-1.54" stroke="#000" stroke-width="3" fill="none"/><path d="M192.6 1073.4l-14.27 4.65v-9.27z" stroke="#000" stroke-width="3"/><g fill="none"><path d="M1361.56 769.27v-80h224v80z"/><path d="M1585.56 689.27c0 7.73-6.27 14-14 14h-84c-7.73 0-14 6.27-14 14 0-7.73-6.27-14-14-14h-84c-7.73 0-14-6.27-14-14" stroke="#000" stroke-width="3"/></g><path d="M1476.56 730.77v81.76" fill="none"/><path d="M1476.56 730.77v13.63m0 13.62v27.26m0 13.63v13.63" stroke="#000" stroke-width="3" fill="none"/><path d="M1470.56 730.77v81.76" fill="none"/><path d="M1470.56 730.77v13.63m0 13.62v27.26m0 13.63v13.63M1476.56 730.8v-4.53M1470.56 730.8v-4.53" stroke="#000" stroke-width="3" fill="none"/><path d="M1473.56 835.55l-12.73-21.52h25.45zM583.63 1186.4l46.4-46.4h67.2l46.4 46.4v67.2l-46.4 46.4h-67.2l-46.4-46.4z" stroke="#000" stroke-width="3" fill="#fff"/><g><use xlink:href="#bm" transform="matrix(1,0,0,1,588.6303080766229,1145) translate(56.2 81.25777777777778)"/></g><path d="M177.17 414.2l46.4-46.4h67.2l46.4 46.4v67.2l-46.4 46.4h-67.2l-46.4-46.4z" stroke="#000" stroke-width="3" fill="#fff"/><g><use xlink:href="#bn" transform="matrix(1,0,0,1,182.1690258118324,372.8048780488316) translate(30.448888888888888 81.25777777777778)"/><use xlink:href="#Q" transform="matrix(1,0,0,1,182.1690258118324,372.8048780488316) translate(74.87555555555556 81.25777777777778)"/></g><defs><path d="M524-693h97V0h-97v-320H185V0H88v-693h97v289h339v-289" id="bo"/><path d="M139-156c0 106 132 93 220 82v-155c-78-22-220-23-220 73zm-94 1c-2-152 173-180 314-148 5-94-26-150-117-150-50 0-101 8-132 20l-11-77c32-13 99-23 151-23 135 0 201 66 200 199V-9C390 1 319 11 247 11 126 11 46-34 45-155" id="bp"/><path d="M59-97c36 13 83 32 144 30 63-2 112-9 112-63 0-99-160-93-221-153-24-24-44-52-44-100 0-151 196-178 331-127l-17 80c-60-35-257-49-214 69 69 92 264 59 259 227-2 107-89 146-206 146C133 12 82-2 42-17" id="bq"/><path d="M279-449c-38 1-76 8-104 17V0H82v-760l93-16v266c32-12 72-21 114-21 153-1 213 87 213 239V0h-93v-272c1-107-22-181-130-177" id="br"/><g id="a"><use transform="matrix(0.017777777777777778,0,0,0.017777777777777778,0,0)" xlink:href="#bo"/><use transform="matrix(0.017777777777777778,0,0,0.017777777777777778,12.604444444444445,0)" xlink:href="#bp"/><use transform="matrix(0.017777777777777778,0,0,0.017777777777777778,21.955555555555556,0)" xlink:href="#bq"/><use transform="matrix(0.017777777777777778,0,0,0.017777777777777778,29.955555555555556,0)" xlink:href="#br"/></g><path d="M82-567C68-745 227-812 397-759l-17 80c-21-10-52-17-88-17-102 0-122 72-117 176h200v78H175V0H82v-567" id="bs"/><path d="M82-498c73-28 204-47 296-18l-16 81c-44-19-138-19-187-2V0H82v-498" id="bt"/><path d="M278-449c-36 0-74 4-103 10V0H82v-505c94-23 290-55 347 27 41-28 96-52 166-53 149-3 194 91 194 239V0h-93v-272c0-100-11-177-111-177-50 0-96 17-119 35 30 114 10 276 16 414h-93v-272c0-99-12-179-111-177" id="bu"/><path d="M315 12C141 9 53-87 53-259c0-164 81-274 237-274 163 0 227 118 216 298H150c9 108 58 165 175 165 54 0 101-11 133-25l13 78c-33 16-99 31-156 29zm95-322c8-101-82-177-178-132-47 22-73 71-80 132h258" id="bv"/><g id="b"><use transform="matrix(0.017777777777777778,0,0,0.017777777777777778,0,0)" xlink:href="#bs"/><use transform="matrix(0.017777777777777778,0,0,0.017777777777777778,6.933333333333334,0)" xlink:href="#bt"/><use transform="matrix(0.017777777777777778,0,0,0.017777777777777778,13.866666666666667,0)" xlink:href="#bp"/><use transform="matrix(0.017777777777777778,0,0,0.017777777777777778,23.217777777777776,0)" xlink:href="#bu"/><use transform="matrix(0.017777777777777778,0,0,0.017777777777777778,38.595555555555556,0)" xlink:href="#bv"/></g><path d="M300-71c36 0 74-3 103-10v-439h93v505C441-2 367 11 290 11 138 11 76-78 76-228v-292h93v272c2 116 24 177 131 177" id="bw"/><path d="M175 0H82v-520h93V0zm13-675c0 35-26 61-60 61s-60-26-60-61 26-61 60-61 60 26 60 61" id="bx"/><path d="M279-449c-36 1-74 4-104 10V0H82v-505c55-13 130-26 207-26 153 0 213 87 213 239V0h-93v-272c1-107-22-180-130-177" id="by"/><path d="M252 108c114 0 161-44 156-160-25 15-79 35-127 33-151-6-228-96-228-252 0-162 90-254 252-260 75-2 141 15 195 27v464c0 164-85 227-250 228-62 1-124-12-168-27l17-81c38 15 98 28 153 28zm38-207c46 2 92-16 117-35v-304c-29-7-58-11-101-11-102-1-157 76-156 179 2 102 44 167 140 171" id="bz"/><g id="c"><use transform="matrix(0.017777777777777778,0,0,0.017777777777777778,0,0)" xlink:href="#bw"/><use transform="matrix(0.017777777777777778,0,0,0.017777777777777778,10.275555555555556,0)" xlink:href="#bq"/><use transform="matrix(0.017777777777777778,0,0,0.017777777777777778,18.275555555555556,0)" xlink:href="#bx"/><use transform="matrix(0.017777777777777778,0,0,0.017777777777777778,22.844444444444445,0)" xlink:href="#by"/><use transform="matrix(0.017777777777777778,0,0,0.017777777777777778,33.120000000000005,0)" xlink:href="#bz"/></g><path d="M25 0c65-128 149-247 231-366L34-693h112l171 258 169-258h111L379-370C463-249 547-129 613 0H504c-52-103-121-205-186-296-66 91-133 194-186 296H25" id="bA"/><path d="M95-550c82-33 155-78 210-143h66V0h-93v-564c-41 36-97 64-154 84" id="bB"/><g id="d"><use transform="matrix(0.017777777777777778,0,0,0.017777777777777778,0,0)" xlink:href="#bA"/><use transform="matrix(0.017777777777777778,0,0,0.017777777777777778,11.28888888888889,0)" xlink:href="#bB"/><use transform="matrix(0.017777777777777778,0,0,0.017777777777777778,21.386666666666667,0)" xlink:href="#bB"/></g><path d="M64-114c42 22 110 45 185 45 127 0 189-72 139-159-74-129-329-76-337-288-8-203 271-234 423-150l-31 79c-73-47-295-73-292 60 2 88 82 103 147 131 102 44 200 79 205 222C510 40 191 50 35-34" id="bC"/><path d="M255-109c52-125 101-269 137-411h96C441-339 364-151 295 0h-84C142-151 64-339 18-520h100c36 142 85 286 137 411" id="bD"/><g id="e"><use transform="matrix(0.017777777777777778,0,0,0.017777777777777778,0,0)" xlink:href="#bC"/><use transform="matrix(0.017777777777777778,0,0,0.017777777777777778,9.528888888888888,0)" xlink:href="#bp"/><use transform="matrix(0.017777777777777778,0,0,0.017777777777777778,18.88,0)" xlink:href="#bD"/><use transform="matrix(0.017777777777777778,0,0,0.017777777777777778,27.626666666666665,0)" xlink:href="#bv"/></g><g id="f"><use transform="matrix(0.017777777777777778,0,0,0.017777777777777778,0,0)" xlink:href="#br"/><use transform="matrix(0.017777777777777778,0,0,0.017777777777777778,10.222222222222221,0)" xlink:href="#bp"/><use transform="matrix(0.017777777777777778,0,0,0.017777777777777778,19.57333333333333,0)" xlink:href="#bq"/><use transform="matrix(0.017777777777777778,0,0,0.017777777777777778,27.57333333333333,0)" xlink:href="#br"/></g><path d="M315-70c41 0 75-4 103-11v-329c-24-19-73-42-119-40-110 2-147 80-149 190-2 113 59 189 165 190zm-28-462c51-2 103 18 131 35v-263l93-16v761C458-1 388 13 314 12 145 7 53-90 53-260c0-162 75-266 234-272" id="bE"/><g id="g"><use transform="matrix(0.017777777777777778,0,0,0.017777777777777778,0,0)" xlink:href="#bC"/><use transform="matrix(0.017777777777777778,0,0,0.017777777777777778,9.528888888888888,0)" xlink:href="#bv"/><use transform="matrix(0.017777777777777778,0,0,0.017777777777777778,19.537777777777777,0)" xlink:href="#by"/><use transform="matrix(0.017777777777777778,0,0,0.017777777777777778,29.813333333333333,0)" xlink:href="#bE"/></g><path d="M393 15C177 15 60-125 60-347s117-362 333-362c214 0 329 141 329 362S607 15 393 15zm-2-639c-159 0-229 115-229 277S232-70 391-70c158 0 228-115 228-277s-70-277-228-277" id="bF"/><path d="M88-683c49-13 125-17 184-17 175 0 303 59 303 221 0 202-179 229-390 222V0H88v-683zm385 203c0-140-156-141-288-132v272c146 2 288 4 288-140" id="bG"/><path d="M-2 106h500v79H-2v-79" id="bH"/><path d="M571-481c0 104-59 163-144 191 67 84 137 186 186 290H507c-51-97-115-192-181-272-45 2-94 0-141 1V0H88v-683c49-13 125-17 184-17 175 0 299 58 299 219zm-102-1c0-139-153-139-284-130v261c140 0 284 11 284-131" id="bI"/><path d="M88 0v-693h423v83H185v206h290v81H185v240h351V0H88" id="bJ"/><path d="M551-693v84H333V0h-97v-609H18v-84h533" id="bK"/><path d="M609-258C606-86 520 15 346 15S83-86 83-258v-435h97v424c-3 125 55 198 166 198 117 0 165-77 166-198v-424h97v435" id="bL"/><path d="M563 0C450-189 321-377 183-541V0H88v-693h77c137 151 274 337 384 513v-513h95V0h-81" id="bM"/><g id="h"><use transform="matrix(0.017777777777777778,0,0,0.017777777777777778,0,0)" xlink:href="#bF"/><use transform="matrix(0.017777777777777778,0,0,0.017777777777777778,13.902222222222223,0)" xlink:href="#bG"/><use transform="matrix(0.017777777777777778,0,0,0.017777777777777778,24.782222222222224,0)" xlink:href="#bH"/><use transform="matrix(0.017777777777777778,0,0,0.017777777777777778,33.6,0)" xlink:href="#bI"/><use transform="matrix(0.017777777777777778,0,0,0.017777777777777778,44.85333333333334,0)" xlink:href="#bJ"/><use transform="matrix(0.017777777777777778,0,0,0.017777777777777778,55.07555555555556,0)" xlink:href="#bK"/><use transform="matrix(0.017777777777777778,0,0,0.017777777777777778,65.19111111111111,0)" xlink:href="#bL"/><use transform="matrix(0.017777777777777778,0,0,0.017777777777777778,77.49333333333334,0)" xlink:href="#bI"/><use transform="matrix(0.017777777777777778,0,0,0.017777777777777778,88.74666666666667,0)" xlink:href="#bM"/></g><path d="M257 11C121 11 76-66 76-201v-464l93-16v161h197v78H169v240c-1 80 17 131 96 131 43 0 79-13 103-23l18 77c-27 12-82 28-129 28" id="bN"/><path d="M18 0c47-93 120-191 180-273L26-520h105l124 182 125-182h99L311-279C371-196 448-94 495 0H393c-39-75-91-148-140-214-49 66-99 140-139 214H18" id="bO"/><g id="i"><use transform="matrix(0.017777777777777778,0,0,0.017777777777777778,0,0)" xlink:href="#bN"/><use transform="matrix(0.017777777777777778,0,0,0.017777777777777778,7.52,0)" xlink:href="#bO"/></g><path d="M761-520C714-334 656-153 588 0h-81c-40-105-86-236-117-357-31 122-76 252-116 357h-81C125-153 67-334 20-520h100c31 138 71 286 118 407 45-126 85-269 117-407h77c30 140 70 281 115 407 46-123 88-268 118-407h96" id="bP"/><g id="j"><use transform="matrix(0.017777777777777778,0,0,0.017777777777777778,0,0)" xlink:href="#bP"/><use transform="matrix(0.017777777777777778,0,0,0.017777777777777778,13.884444444444444,0)" xlink:href="#bx"/><use transform="matrix(0.017777777777777778,0,0,0.017777777777777778,18.453333333333333,0)" xlink:href="#bN"/><use transform="matrix(0.017777777777777778,0,0,0.017777777777777778,25.67111111111111,0)" xlink:href="#br"/></g><g id="k"><use transform="matrix(0.017777777777777778,0,0,0.017777777777777778,0,0)" xlink:href="#br"/><use transform="matrix(0.017777777777777778,0,0,0.017777777777777778,10.222222222222221,0)" xlink:href="#bp"/><use transform="matrix(0.017777777777777778,0,0,0.017777777777777778,19.57333333333333,0)" xlink:href="#bq"/><use transform="matrix(0.017777777777777778,0,0,0.017777777777777778,27.57333333333333,0)" xlink:href="#br"/></g><g id="l"><use transform="matrix(0.017777777777777778,0,0,0.017777777777777778,0,0)" xlink:href="#bp"/><use transform="matrix(0.017777777777777778,0,0,0.017777777777777778,9.351111111111111,0)" xlink:href="#bq"/></g><g id="m"><use transform="matrix(0.017777777777777778,0,0,0.017777777777777778,0,0)" xlink:href="#bN"/><use transform="matrix(0.017777777777777778,0,0,0.017777777777777778,7.217777777777778,0)" xlink:href="#br"/><use transform="matrix(0.017777777777777778,0,0,0.017777777777777778,17.439999999999998,0)" xlink:href="#bv"/></g><g id="n"><use transform="matrix(0.017777777777777778,0,0,0.017777777777777778,0,0)" xlink:href="#bE"/><use transform="matrix(0.017777777777777778,0,0,0.017777777777777778,10.542222222222222,0)" xlink:href="#bp"/><use transform="matrix(0.017777777777777778,0,0,0.017777777777777778,19.89333333333333,0)" xlink:href="#bN"/><use transform="matrix(0.017777777777777778,0,0,0.017777777777777778,27.111111111111107,0)" xlink:href="#bp"/></g><g id="o"><use transform="matrix(0.017777777777777778,0,0,0.017777777777777778,0,0)" xlink:href="#bA"/><use transform="matrix(0.017777777777777778,0,0,0.017777777777777778,10.862222222222224,0)" xlink:href="#bF"/><use transform="matrix(0.017777777777777778,0,0,0.017777777777777778,24.764444444444447,0)" xlink:href="#bI"/></g><path d="M279 12C204 13 135-1 82-15v-745l93-16v279c28-17 80-37 131-35 159 6 234 110 234 272C540-90 448 7 279 12zm15-462c-46-2-95 21-119 40v329c28 7 62 11 103 11 106 0 167-77 165-190-2-110-39-188-149-190" id="bQ"/><path d="M297-533c160 0 244 110 244 273S457 13 297 13 53-97 53-260s84-273 244-273zm0 464c98 0 147-85 147-191s-49-191-147-191-147 85-147 191S199-69 297-69" id="bR"/><g id="p"><use transform="matrix(0.017777777777777778,0,0,0.017777777777777778,0,0)" xlink:href="#bQ"/><use transform="matrix(0.017777777777777778,0,0,0.017777777777777778,10.542222222222222,0)" xlink:href="#bR"/><use transform="matrix(0.017777777777777778,0,0,0.017777777777777778,21.10222222222222,0)" xlink:href="#bN"/><use transform="matrix(0.017777777777777778,0,0,0.017777777777777778,28.32,0)" xlink:href="#br"/></g><path d="M40 136C75 68 85-19 79-114h101c7 109-27 200-68 273" id="bS"/><g id="q"><use transform="matrix(0.017777777777777778,0,0,0.017777777777777778,0,0)" xlink:href="#bQ"/><use transform="matrix(0.017777777777777778,0,0,0.017777777777777778,10.542222222222222,0)" xlink:href="#bx"/><use transform="matrix(0.017777777777777778,0,0,0.017777777777777778,15.11111111111111,0)" xlink:href="#bN"/><use transform="matrix(0.017777777777777778,0,0,0.017777777777777778,22.32888888888889,0)" xlink:href="#bq"/><use transform="matrix(0.017777777777777778,0,0,0.017777777777777778,30.32888888888889,0)" xlink:href="#bN"/><use transform="matrix(0.017777777777777778,0,0,0.017777777777777778,37.54666666666667,0)" xlink:href="#bt"/><use transform="matrix(0.017777777777777778,0,0,0.017777777777777778,44.48,0)" xlink:href="#bx"/><use transform="matrix(0.017777777777777778,0,0,0.017777777777777778,49.0488888888889,0)" xlink:href="#by"/><use transform="matrix(0.017777777777777778,0,0,0.017777777777777778,59.32444444444445,0)" xlink:href="#bz"/><use transform="matrix(0.017777777777777778,0,0,0.017777777777777778,69.67111111111112,0)" xlink:href="#bq"/><use transform="matrix(0.017777777777777778,0,0,0.017777777777777778,77.67111111111112,0)" xlink:href="#bS"/></g><path d="M447-14c-35 17-88 26-139 26C139 12 53-90 53-259c0-187 118-299 319-268 23 4 46 10 67 19l-21 79c-28-13-66-22-107-22-111 1-162 75-161 192 1 118 51 189 170 189 43 1 87-10 114-22" id="bT"/><g id="r"><use transform="matrix(0.017777777777777778,0,0,0.017777777777777778,0,0)" xlink:href="#bT"/><use transform="matrix(0.017777777777777778,0,0,0.017777777777777778,8.106666666666666,0)" xlink:href="#bR"/><use transform="matrix(0.017777777777777778,0,0,0.017777777777777778,18.666666666666664,0)" xlink:href="#by"/><use transform="matrix(0.017777777777777778,0,0,0.017777777777777778,28.657777777777778,0)" xlink:href="#bD"/><use transform="matrix(0.017777777777777778,0,0,0.017777777777777778,37.404444444444444,0)" xlink:href="#bv"/><use transform="matrix(0.017777777777777778,0,0,0.017777777777777778,47.413333333333334,0)" xlink:href="#bt"/><use transform="matrix(0.017777777777777778,0,0,0.017777777777777778,54.346666666666664,0)" xlink:href="#bN"/></g><g id="s"><use transform="matrix(0.017777777777777778,0,0,0.017777777777777778,0,0)" xlink:href="#bN"/><use transform="matrix(0.017777777777777778,0,0,0.017777777777777778,6.9688888888888885,0)" xlink:href="#bR"/></g><g id="t"><use transform="matrix(0.017777777777777778,0,0,0.017777777777777778,0,0)" xlink:href="#br"/><use transform="matrix(0.017777777777777778,0,0,0.017777777777777778,10.222222222222221,0)" xlink:href="#bv"/><use transform="matrix(0.017777777777777778,0,0,0.017777777777777778,20.23111111111111,0)" xlink:href="#bO"/></g><path d="M88 0v-693h418v83H185v209h285v82H185V0H88" id="bU"/><g id="u"><use transform="matrix(0.017777777777777778,0,0,0.017777777777777778,0,0)" xlink:href="#bU"/><use transform="matrix(0.017777777777777778,0,0,0.017777777777777778,9.617777777777778,0)" xlink:href="#bx"/><use transform="matrix(0.017777777777777778,0,0,0.017777777777777778,14.186666666666667,0)" xlink:href="#by"/><use transform="matrix(0.017777777777777778,0,0,0.017777777777777778,24.462222222222223,0)" xlink:href="#bE"/></g><g id="v"><use transform="matrix(0.017777777777777778,0,0,0.017777777777777778,0,0)" xlink:href="#bT"/><use transform="matrix(0.017777777777777778,0,0,0.017777777777777778,8.106666666666666,0)" xlink:href="#bR"/><use transform="matrix(0.017777777777777778,0,0,0.017777777777777778,18.666666666666664,0)" xlink:href="#by"/><use transform="matrix(0.017777777777777778,0,0,0.017777777777777778,28.942222222222224,0)" xlink:href="#bs"/><use transform="matrix(0.017777777777777778,0,0,0.017777777777777778,35.87555555555555,0)" xlink:href="#bx"/><use transform="matrix(0.017777777777777778,0,0,0.017777777777777778,40.44444444444444,0)" xlink:href="#bt"/><use transform="matrix(0.017777777777777778,0,0,0.017777777777777778,47.37777777777778,0)" xlink:href="#bu"/><use transform="matrix(0.017777777777777778,0,0,0.017777777777777778,62.75555555555557,0)" xlink:href="#bv"/><use transform="matrix(0.017777777777777778,0,0,0.017777777777777778,72.76444444444445,0)" xlink:href="#bE"/></g><path d="M173-151c-3 59 26 79 78 83l-13 78C129 7 80-30 80-136v-624l93-16v625" id="bV"/><path d="M490-520c-69 78-147 159-220 234 93 75 176 181 240 286H401c-59-95-136-186-226-250V0H82v-760l93-16v474c70-69 142-144 206-218h109" id="bW"/><path d="M95-501c-14-80-24-166-21-259h97c3 93-7 179-21 259H95" id="bX"/><g id="w"><use transform="matrix(0.017777777777777778,0,0,0.017777777777777778,0,0)" xlink:href="#bQ"/><use transform="matrix(0.017777777777777778,0,0,0.017777777777777778,10.542222222222222,0)" xlink:href="#bV"/><use transform="matrix(0.017777777777777778,0,0,0.017777777777777778,15.466666666666665,0)" xlink:href="#bR"/><use transform="matrix(0.017777777777777778,0,0,0.017777777777777778,26.026666666666664,0)" xlink:href="#bT"/><use transform="matrix(0.017777777777777778,0,0,0.017777777777777778,34.364444444444445,0)" xlink:href="#bW"/><use transform="matrix(0.017777777777777778,0,0,0.017777777777777778,43.715555555555554,0)" xlink:href="#bX"/><use transform="matrix(0.017777777777777778,0,0,0.017777777777777778,48.07111111111111,0)" xlink:href="#bq"/></g><g id="x"><use transform="matrix(0.017777777777777778,0,0,0.017777777777777778,0,0)" xlink:href="#bN"/><use transform="matrix(0.017777777777777778,0,0,0.017777777777777778,7.217777777777778,0)" xlink:href="#br"/><use transform="matrix(0.017777777777777778,0,0,0.017777777777777778,17.439999999999998,0)" xlink:href="#bp"/><use transform="matrix(0.017777777777777778,0,0,0.017777777777777778,26.791111111111107,0)" xlink:href="#bN"/></g><g id="y"><use transform="matrix(0.017777777777777778,0,0,0.017777777777777778,0,0)" xlink:href="#bN"/><use transform="matrix(0.017777777777777778,0,0,0.017777777777777778,7.52,0)" xlink:href="#bO"/></g><g id="z"><use transform="matrix(0.017777777777777778,0,0,0.017777777777777778,0,0)" xlink:href="#bx"/><use transform="matrix(0.017777777777777778,0,0,0.017777777777777778,4.568888888888889,0)" xlink:href="#bq"/></g><g id="A"><use transform="matrix(0.017777777777777778,0,0,0.017777777777777778,0,0)" xlink:href="#bx"/><use transform="matrix(0.017777777777777778,0,0,0.017777777777777778,4.568888888888889,0)" xlink:href="#by"/><use transform="matrix(0.017777777777777778,0,0,0.017777777777777778,14.844444444444445,0)" xlink:href="#bT"/><use transform="matrix(0.017777777777777778,0,0,0.017777777777777778,23.182222222222222,0)" xlink:href="#bV"/><use transform="matrix(0.017777777777777778,0,0,0.017777777777777778,28.106666666666666,0)" xlink:href="#bw"/><use transform="matrix(0.017777777777777778,0,0,0.017777777777777778,38.382222222222225,0)" xlink:href="#bE"/><use transform="matrix(0.017777777777777778,0,0,0.017777777777777778,48.92444444444445,0)" xlink:href="#bv"/><use transform="matrix(0.017777777777777778,0,0,0.017777777777777778,58.93333333333333,0)" xlink:href="#bE"/></g><path d="M125-121c39 0 67 30 67 67s-28 67-67 67-67-30-67-67 28-67 67-67" id="bY"/><g id="B"><use transform="matrix(0.017777777777777778,0,0,0.017777777777777778,0,0)" xlink:href="#bx"/><use transform="matrix(0.017777777777777778,0,0,0.017777777777777778,4.568888888888889,0)" xlink:href="#by"/><use transform="matrix(0.017777777777777778,0,0,0.017777777777777778,14.844444444444445,0)" xlink:href="#bY"/></g><path d="M682-533C610-400 540-239 477-96h-78c-63-145-132-302-205-437-15 163-23 356-30 533H69c10-236 25-474 51-693h85c86 143 163 321 233 480 71-159 147-337 233-480h85c23 223 40 454 51 693h-95c-7-177-15-370-30-533" id="bZ"/><g id="D"><use transform="matrix(0.017777777777777778,0,0,0.017777777777777778,0,0)" xlink:href="#bZ"/><use transform="matrix(0.017777777777777778,0,0,0.017777777777777778,15.555555555555555,0)" xlink:href="#bp"/><use transform="matrix(0.017777777777777778,0,0,0.017777777777777778,24.906666666666666,0)" xlink:href="#bN"/><use transform="matrix(0.017777777777777778,0,0,0.017777777777777778,31.89333333333333,0)" xlink:href="#bT"/><use transform="matrix(0.017777777777777778,0,0,0.017777777777777778,40.231111111111105,0)" xlink:href="#br"/></g><g id="E"><use transform="matrix(0.017777777777777778,0,0,0.017777777777777778,0,0)" xlink:href="#bv"/><use transform="matrix(0.017777777777777778,0,0,0.017777777777777778,10.008888888888889,0)" xlink:href="#bp"/><use transform="matrix(0.017777777777777778,0,0,0.017777777777777778,19.36,0)" xlink:href="#bT"/><use transform="matrix(0.017777777777777778,0,0,0.017777777777777778,27.697777777777777,0)" xlink:href="#br"/></g><path d="M42-240c77-166 189-328 311-453h89v440h82v76h-82V0h-90v-177H42v-63zm310-343c-86 94-162 208-220 330h220v-330" id="ca"/><use transform="matrix(0.017777777777777778,0,0,0.017777777777777778,0,0)" xlink:href="#ca" id="F"/><g id="G"><use transform="matrix(0.017777777777777778,0,0,0.017777777777777778,0,0)" xlink:href="#bE"/><use transform="matrix(0.017777777777777778,0,0,0.017777777777777778,10.542222222222222,0)" xlink:href="#bx"/><use transform="matrix(0.017777777777777778,0,0,0.017777777777777778,15.11111111111111,0)" xlink:href="#bz"/><use transform="matrix(0.017777777777777778,0,0,0.017777777777777778,25.45777777777778,0)" xlink:href="#bx"/><use transform="matrix(0.017777777777777778,0,0,0.017777777777777778,30.026666666666667,0)" xlink:href="#bN"/></g><g id="H"><use transform="matrix(0.017777777777777778,0,0,0.017777777777777778,0,0)" xlink:href="#br"/><use transform="matrix(0.017777777777777778,0,0,0.017777777777777778,10.222222222222221,0)" xlink:href="#bv"/><use transform="matrix(0.017777777777777778,0,0,0.017777777777777778,20.23111111111111,0)" xlink:href="#bO"/></g><use transform="matrix(0.017777777777777778,0,0,0.017777777777777778,0,0)" xlink:href="#bp" id="I"/><path d="M294-70c109-2 147-79 149-189 2-113-59-188-165-189-45 0-73 2-103 10v328c24 19 73 42 119 40zm-15-461c169 5 261 102 261 272C540-98 465 6 306 12c-51 2-103-18-131-35v208H82v-689c54-12 122-29 197-27" id="cb"/><g id="J"><use transform="matrix(0.017777777777777778,0,0,0.017777777777777778,0,0)" xlink:href="#cb"/><use transform="matrix(0.017777777777777778,0,0,0.017777777777777778,10.542222222222222,0)" xlink:href="#bt"/><use transform="matrix(0.017777777777777778,0,0,0.017777777777777778,17.475555555555555,0)" xlink:href="#bv"/><use transform="matrix(0.017777777777777778,0,0,0.017777777777777778,27.484444444444442,0)" xlink:href="#bE"/><use transform="matrix(0.017777777777777778,0,0,0.017777777777777778,38.026666666666664,0)" xlink:href="#bv"/><use transform="matrix(0.017777777777777778,0,0,0.017777777777777778,48.035555555555554,0)" xlink:href="#bs"/><use transform="matrix(0.017777777777777778,0,0,0.017777777777777778,54.968888888888884,0)" xlink:href="#bx"/><use transform="matrix(0.017777777777777778,0,0,0.017777777777777778,59.53777777777778,0)" xlink:href="#by"/><use transform="matrix(0.017777777777777778,0,0,0.017777777777777778,69.81333333333333,0)" xlink:href="#bv"/><use transform="matrix(0.017777777777777778,0,0,0.017777777777777778,79.82222222222222,0)" xlink:href="#bE"/></g><path d="M266-100c50-137 84-270 119-420h96C435-330 371-148 306 16 261 129 164 226 4 172l17-75c41 21 118 16 149-11 20-17 39-42 56-79C145-149 66-333 18-520h100c37 148 89 293 148 420" id="cc"/><g id="K"><use transform="matrix(0.017777777777777778,0,0,0.017777777777777778,0,0)" xlink:href="#bT"/><use transform="matrix(0.017777777777777778,0,0,0.017777777777777778,8.533333333333333,0)" xlink:href="#cc"/><use transform="matrix(0.017777777777777778,0,0,0.017777777777777778,17.439999999999998,0)" xlink:href="#cb"/><use transform="matrix(0.017777777777777778,0,0,0.017777777777777778,27.98222222222222,0)" xlink:href="#br"/><use transform="matrix(0.017777777777777778,0,0,0.017777777777777778,38.20444444444444,0)" xlink:href="#bv"/><use transform="matrix(0.017777777777777778,0,0,0.017777777777777778,48.21333333333333,0)" xlink:href="#bt"/></g><g id="L"><use transform="matrix(0.017777777777777778,0,0,0.017777777777777778,0,0)" xlink:href="#bL"/><use transform="matrix(0.017777777777777778,0,0,0.017777777777777778,12.302222222222222,0)" xlink:href="#bq"/><use transform="matrix(0.017777777777777778,0,0,0.017777777777777778,20.30222222222222,0)" xlink:href="#bv"/><use transform="matrix(0.017777777777777778,0,0,0.017777777777777778,30.31111111111111,0)" xlink:href="#bt"/></g><g id="M"><use transform="matrix(0.017777777777777778,0,0,0.017777777777777778,0,0)" xlink:href="#bt"/><use transform="matrix(0.017777777777777778,0,0,0.017777777777777778,6.933333333333334,0)" xlink:href="#bv"/><use transform="matrix(0.017777777777777778,0,0,0.017777777777777778,16.94222222222222,0)" xlink:href="#bq"/><use transform="matrix(0.017777777777777778,0,0,0.017777777777777778,24.942222222222224,0)" xlink:href="#bx"/><use transform="matrix(0.017777777777777778,0,0,0.017777777777777778,29.511111111111113,0)" xlink:href="#bN"/><use transform="matrix(0.017777777777777778,0,0,0.017777777777777778,36.55111111111111,0)" xlink:href="#bv"/><use transform="matrix(0.017777777777777778,0,0,0.017777777777777778,46.56,0)" xlink:href="#bq"/></g><g id="N"><use transform="matrix(0.017777777777777778,0,0,0.017777777777777778,0,0)" xlink:href="#bP"/><use transform="matrix(0.017777777777777778,0,0,0.017777777777777778,13.671111111111111,0)" xlink:href="#bR"/><use transform="matrix(0.017777777777777778,0,0,0.017777777777777778,24.23111111111111,0)" xlink:href="#bt"/><use transform="matrix(0.017777777777777778,0,0,0.017777777777777778,31.164444444444445,0)" xlink:href="#bE"/></g><g id="O"><use transform="matrix(0.017777777777777778,0,0,0.017777777777777778,0,0)" xlink:href="#bV"/><use transform="matrix(0.017777777777777778,0,0,0.017777777777777778,4.924444444444444,0)" xlink:href="#bx"/><use transform="matrix(0.017777777777777778,0,0,0.017777777777777778,9.49333333333333,0)" xlink:href="#bq"/><use transform="matrix(0.017777777777777778,0,0,0.017777777777777778,17.493333333333332,0)" xlink:href="#bN"/></g><g id="P"><use transform="matrix(0.017777777777777778,0,0,0.017777777777777778,0,0)" xlink:href="#bx"/><use transform="matrix(0.017777777777777778,0,0,0.017777777777777778,4.568888888888889,0)" xlink:href="#by"/></g><g id="Q"><use transform="matrix(0.017777777777777778,0,0,0.017777777777777778,0,0)" xlink:href="#bD"/><use transform="matrix(0.017777777777777778,0,0,0.017777777777777778,8.995555555555555,0)" xlink:href="#bx"/><use transform="matrix(0.017777777777777778,0,0,0.017777777777777778,13.564444444444444,0)" xlink:href="#bE"/><use transform="matrix(0.017777777777777778,0,0,0.017777777777777778,24.106666666666666,0)" xlink:href="#bv"/><use transform="matrix(0.017777777777777778,0,0,0.017777777777777778,34.11555555555555,0)" xlink:href="#bR"/></g><path d="M88-693h97V0H88v-693" id="cd"/><g id="S"><use transform="matrix(0.017777777777777778,0,0,0.017777777777777778,0,0)" xlink:href="#cd"/><use transform="matrix(0.017777777777777778,0,0,0.017777777777777778,4.8533333333333335,0)" xlink:href="#bs"/></g><g id="T"><use transform="matrix(0.017777777777777778,0,0,0.017777777777777778,0,0)" xlink:href="#bD"/><use transform="matrix(0.017777777777777778,0,0,0.017777777777777778,8.995555555555555,0)" xlink:href="#bx"/><use transform="matrix(0.017777777777777778,0,0,0.017777777777777778,13.564444444444444,0)" xlink:href="#bE"/><use transform="matrix(0.017777777777777778,0,0,0.017777777777777778,24.106666666666666,0)" xlink:href="#bv"/><use transform="matrix(0.017777777777777778,0,0,0.017777777777777778,34.11555555555555,0)" xlink:href="#bR"/></g><g id="U"><use transform="matrix(0.017777777777777778,0,0,0.017777777777777778,0,0)" xlink:href="#bR"/><use transform="matrix(0.017777777777777778,0,0,0.017777777777777778,10.311111111111112,0)" xlink:href="#bD"/><use transform="matrix(0.017777777777777778,0,0,0.017777777777777778,19.057777777777776,0)" xlink:href="#bv"/><use transform="matrix(0.017777777777777778,0,0,0.017777777777777778,29.06666666666667,0)" xlink:href="#bt"/></g><g id="V"><use transform="matrix(0.017777777777777778,0,0,0.017777777777777778,0,0)" xlink:href="#bR"/><use transform="matrix(0.017777777777777778,0,0,0.017777777777777778,10.56,0)" xlink:href="#by"/><use transform="matrix(0.017777777777777778,0,0,0.017777777777777778,20.83555555555556,0)" xlink:href="#bv"/></g><g id="W"><use transform="matrix(0.017777777777777778,0,0,0.017777777777777778,0,0)" xlink:href="#bQ"/><use transform="matrix(0.017777777777777778,0,0,0.017777777777777778,10.542222222222222,0)" xlink:href="#bV"/><use transform="matrix(0.017777777777777778,0,0,0.017777777777777778,15.466666666666665,0)" xlink:href="#bR"/><use transform="matrix(0.017777777777777778,0,0,0.017777777777777778,26.026666666666664,0)" xlink:href="#bT"/><use transform="matrix(0.017777777777777778,0,0,0.017777777777777778,34.364444444444445,0)" xlink:href="#bW"/></g><g id="X"><use transform="matrix(0.017777777777777778,0,0,0.017777777777777778,0,0)" xlink:href="#bV"/><use transform="matrix(0.017777777777777778,0,0,0.017777777777777778,4.924444444444444,0)" xlink:href="#bv"/><use transform="matrix(0.017777777777777778,0,0,0.017777777777777778,14.933333333333334,0)" xlink:href="#by"/><use transform="matrix(0.017777777777777778,0,0,0.017777777777777778,25.20888888888889,0)" xlink:href="#bz"/><use transform="matrix(0.017777777777777778,0,0,0.017777777777777778,35.55555555555556,0)" xlink:href="#bN"/><use transform="matrix(0.017777777777777778,0,0,0.017777777777777778,42.77333333333333,0)" xlink:href="#br"/></g><path d="M597-29C545 0 469 15 386 15 168 15 67-125 60-347c-8-284 240-432 510-326 11 4 18 9 22 12l-28 80c-42-23-98-43-163-43-163 0-238 111-238 277 0 165 69 273 232 277 73 3 134-19 177-39" id="ce"/><g id="Y"><use transform="matrix(0.017777777777777778,0,0,0.017777777777777778,0,0)" xlink:href="#ce"/><use transform="matrix(0.017777777777777778,0,0,0.017777777777777778,10.826666666666666,0)" xlink:href="#bR"/><use transform="matrix(0.017777777777777778,0,0,0.017777777777777778,21.386666666666667,0)" xlink:href="#by"/><use transform="matrix(0.017777777777777778,0,0,0.017777777777777778,31.662222222222223,0)" xlink:href="#bN"/><use transform="matrix(0.017777777777777778,0,0,0.017777777777777778,38.88,0)" xlink:href="#bx"/><use transform="matrix(0.017777777777777778,0,0,0.017777777777777778,43.44888888888889,0)" xlink:href="#by"/><use transform="matrix(0.017777777777777778,0,0,0.017777777777777778,53.724444444444444,0)" xlink:href="#bw"/><use transform="matrix(0.017777777777777778,0,0,0.017777777777777778,64,0)" xlink:href="#bv"/></g><g id="Z"><use transform="matrix(0.017777777777777778,0,0,0.017777777777777778,0,0)" xlink:href="#bw"/><use transform="matrix(0.017777777777777778,0,0,0.017777777777777778,10.275555555555556,0)" xlink:href="#bq"/><use transform="matrix(0.017777777777777778,0,0,0.017777777777777778,18.275555555555556,0)" xlink:href="#bv"/><use transform="matrix(0.017777777777777778,0,0,0.017777777777777778,28.284444444444443,0)" xlink:href="#bt"/><use transform="matrix(0.017777777777777778,0,0,0.017777777777777778,35.21777777777778,0)" xlink:href="#bq"/></g><g id="aa"><use transform="matrix(0.017777777777777778,0,0,0.017777777777777778,0,0)" xlink:href="#cd"/><use transform="matrix(0.017777777777777778,0,0,0.017777777777777778,4.8533333333333335,0)" xlink:href="#bs"/></g><g id="ab"><use transform="matrix(0.017777777777777778,0,0,0.017777777777777778,0,0)" xlink:href="#bv"/><use transform="matrix(0.017777777777777778,0,0,0.017777777777777778,10.008888888888889,0)" xlink:href="#by"/><use transform="matrix(0.017777777777777778,0,0,0.017777777777777778,20.284444444444443,0)" xlink:href="#bE"/></g><g id="ac"><use transform="matrix(0.017777777777777778,0,0,0.017777777777777778,0,0)" xlink:href="#bR"/><use transform="matrix(0.017777777777777778,0,0,0.017777777777777778,10.56,0)" xlink:href="#bs"/></g><g id="ad"><use transform="matrix(0.017777777777777778,0,0,0.017777777777777778,0,0)" xlink:href="#ce"/><use transform="matrix(0.017777777777777778,0,0,0.017777777777777778,10.826666666666666,0)" xlink:href="#bR"/><use transform="matrix(0.017777777777777778,0,0,0.017777777777777778,21.386666666666667,0)" xlink:href="#by"/><use transform="matrix(0.017777777777777778,0,0,0.017777777777777778,31.662222222222223,0)" xlink:href="#bN"/><use transform="matrix(0.017777777777777778,0,0,0.017777777777777778,38.88,0)" xlink:href="#bx"/><use transform="matrix(0.017777777777777778,0,0,0.017777777777777778,43.44888888888889,0)" xlink:href="#by"/><use transform="matrix(0.017777777777777778,0,0,0.017777777777777778,53.724444444444444,0)" xlink:href="#bw"/><use transform="matrix(0.017777777777777778,0,0,0.017777777777777778,64,0)" xlink:href="#bx"/><use transform="matrix(0.017777777777777778,0,0,0.017777777777777778,68.56888888888889,0)" xlink:href="#by"/><use transform="matrix(0.017777777777777778,0,0,0.017777777777777778,78.84444444444445,0)" xlink:href="#bz"/></g><path d="M722-347c0 199-96 317-260 354 20 80 125 87 211 102l-23 76c-132-20-258-47-285-171C169-7 60-134 60-347c0-222 117-362 333-362 214 0 329 141 329 362zM391-624c-159 0-229 115-229 277S232-70 391-70c158 0 228-115 228-277s-70-277-228-277" id="cf"/><path d="M505-84V0H88v-693h97v609h320" id="cg"/><g id="ae"><use transform="matrix(0.08,0,0,0.08,0,0)" xlink:href="#cf"/><use transform="matrix(0.08,0,0,0.08,62.56,0)" xlink:href="#bw"/><use transform="matrix(0.08,0,0,0.08,108.80000000000003,0)" xlink:href="#bx"/><use transform="matrix(0.08,0,0,0.08,129.36,0)" xlink:href="#bN"/><use transform="matrix(0.08,0,0,0.08,161.04000000000002,0)" xlink:href="#bv"/><use transform="matrix(0.08,0,0,0.08,206.08,0)" xlink:href="#cg"/><use transform="matrix(0.08,0,0,0.08,247.92000000000002,0)" xlink:href="#bx"/><use transform="matrix(0.08,0,0,0.08,268.48,0)" xlink:href="#bD"/><use transform="matrix(0.08,0,0,0.08,307.84000000000003,0)" xlink:href="#bv"/></g><g id="af"><use transform="matrix(0.08,0,0,0.08,0,0)" xlink:href="#bK"/><use transform="matrix(0.08,0,0,0.08,45.52,0)" xlink:href="#bx"/><use transform="matrix(0.08,0,0,0.08,66.08,0)" xlink:href="#bu"/><use transform="matrix(0.08,0,0,0.08,135.28,0)" xlink:href="#bv"/></g><path d="M332-115c78-179 145-380 212-578h104C563-448 477-223 376 0h-91C185-223 95-447 12-693h107c69 199 135 397 213 578" id="ch"/><g id="ag"><use transform="matrix(0.08,0,0,0.08,0,0)" xlink:href="#ch"/><use transform="matrix(0.08,0,0,0.08,49.2,0)" xlink:href="#bv"/><use transform="matrix(0.08,0,0,0.08,94.24,0)" xlink:href="#bt"/><use transform="matrix(0.08,0,0,0.08,125.44000000000003,0)" xlink:href="#bx"/><use transform="matrix(0.08,0,0,0.08,146,0)" xlink:href="#bs"/><use transform="matrix(0.08,0,0,0.08,178.72,0)" xlink:href="#cc"/><use transform="matrix(0.08,0,0,0.08,218.8,0)" xlink:href="#bx"/><use transform="matrix(0.08,0,0,0.08,239.36,0)" xlink:href="#by"/><use transform="matrix(0.08,0,0,0.08,285.6,0)" xlink:href="#bz"/></g><g id="ah"><use transform="matrix(0.08,0,0,0.08,0,0)" xlink:href="#bG"/><use transform="matrix(0.08,0,0,0.08,48.96,0)" xlink:href="#bt"/><use transform="matrix(0.08,0,0,0.08,80.16,0)" xlink:href="#bR"/><use transform="matrix(0.08,0,0,0.08,127.68,0)" xlink:href="#bN"/><use transform="matrix(0.08,0,0,0.08,159.04000000000002,0)" xlink:href="#bR"/><use transform="matrix(0.08,0,0,0.08,206.56000000000003,0)" xlink:href="#bT"/><use transform="matrix(0.08,0,0,0.08,243.04000000000005,0)" xlink:href="#bR"/><use transform="matrix(0.08,0,0,0.08,290.56000000000006,0)" xlink:href="#bV"/></g><path d="M594-693c-76 140-157 278-244 413V0h-97v-278C165-414 84-552 8-693h114c51 111 118 229 182 329 63-101 130-218 182-329h108" id="ci"/><g id="ai"><use transform="matrix(0.017777777777777778,0,0,0.017777777777777778,0,0)" xlink:href="#ci"/><use transform="matrix(0.017777777777777778,0,0,0.017777777777777778,9.831111111111111,0)" xlink:href="#bv"/><use transform="matrix(0.017777777777777778,0,0,0.017777777777777778,19.84,0)" xlink:href="#bq"/></g><g id="aj"><use transform="matrix(0.017777777777777778,0,0,0.017777777777777778,0,0)" xlink:href="#bK"/><use transform="matrix(0.017777777777777778,0,0,0.017777777777777778,10.115555555555556,0)" xlink:href="#br"/><use transform="matrix(0.017777777777777778,0,0,0.017777777777777778,20.337777777777777,0)" xlink:href="#bx"/><use transform="matrix(0.017777777777777778,0,0,0.017777777777777778,24.906666666666666,0)" xlink:href="#bq"/></g><g id="ak"><use transform="matrix(0.017777777777777778,0,0,0.017777777777777778,0,0)" xlink:href="#bu"/><use transform="matrix(0.017777777777777778,0,0,0.017777777777777778,15.377777777777778,0)" xlink:href="#bp"/><use transform="matrix(0.017777777777777778,0,0,0.017777777777777778,24.72888888888889,0)" xlink:href="#cc"/></g><g id="al"><use transform="matrix(0.017777777777777778,0,0,0.017777777777777778,0,0)" xlink:href="#bN"/><use transform="matrix(0.017777777777777778,0,0,0.017777777777777778,7.217777777777778,0)" xlink:href="#bp"/><use transform="matrix(0.017777777777777778,0,0,0.017777777777777778,16.56888888888889,0)" xlink:href="#bW"/><use transform="matrix(0.017777777777777778,0,0,0.017777777777777778,25.45777777777778,0)" xlink:href="#bv"/></g><g id="am"><use transform="matrix(0.017777777777777778,0,0,0.017777777777777778,0,0)" xlink:href="#bN"/><use transform="matrix(0.017777777777777778,0,0,0.017777777777777778,7.217777777777778,0)" xlink:href="#bx"/><use transform="matrix(0.017777777777777778,0,0,0.017777777777777778,11.786666666666667,0)" xlink:href="#bu"/><use transform="matrix(0.017777777777777778,0,0,0.017777777777777778,27.164444444444445,0)" xlink:href="#bv"/></g><g id="an"><use transform="matrix(0.017777777777777778,0,0,0.017777777777777778,0,0)" xlink:href="#bN"/><use transform="matrix(0.017777777777777778,0,0,0.017777777777777778,6.9688888888888885,0)" xlink:href="#bR"/></g><g id="ao"><use transform="matrix(0.017777777777777778,0,0,0.017777777777777778,0,0)" xlink:href="#bT"/><use transform="matrix(0.017777777777777778,0,0,0.017777777777777778,8.106666666666666,0)" xlink:href="#bR"/><use transform="matrix(0.017777777777777778,0,0,0.017777777777777778,18.666666666666664,0)" xlink:href="#by"/><use transform="matrix(0.017777777777777778,0,0,0.017777777777777778,28.942222222222224,0)" xlink:href="#bs"/><use transform="matrix(0.017777777777777778,0,0,0.017777777777777778,35.87555555555555,0)" xlink:href="#bx"/><use transform="matrix(0.017777777777777778,0,0,0.017777777777777778,40.44444444444444,0)" xlink:href="#bt"/><use transform="matrix(0.017777777777777778,0,0,0.017777777777777778,47.37777777777778,0)" xlink:href="#bu"/></g><g id="ap"><use transform="matrix(0.017777777777777778,0,0,0.017777777777777778,0,0)" xlink:href="#bN"/><use transform="matrix(0.017777777777777778,0,0,0.017777777777777778,7.217777777777778,0)" xlink:href="#br"/><use transform="matrix(0.017777777777777778,0,0,0.017777777777777778,17.439999999999998,0)" xlink:href="#bv"/></g><g id="aq"><use transform="matrix(0.017777777777777778,0,0,0.017777777777777778,0,0)" xlink:href="#bN"/><use transform="matrix(0.017777777777777778,0,0,0.017777777777777778,7.52,0)" xlink:href="#bO"/><use transform="matrix(0.017777777777777778,0,0,0.017777777777777778,16.675555555555555,0)" xlink:href="#bY"/></g><g id="ar"><use transform="matrix(0.017777777777777778,0,0,0.017777777777777778,0,0)" xlink:href="#bM"/><use transform="matrix(0.017777777777777778,0,0,0.017777777777777778,13.013333333333334,0)" xlink:href="#bR"/><use transform="matrix(0.017777777777777778,0,0,0.017777777777777778,23.573333333333334,0)" xlink:href="#bN"/></g><g id="as"><use transform="matrix(0.017777777777777778,0,0,0.017777777777777778,0,0)" xlink:href="#bq"/><use transform="matrix(0.017777777777777778,0,0,0.017777777777777778,8,0)" xlink:href="#bw"/><use transform="matrix(0.017777777777777778,0,0,0.017777777777777778,18.275555555555556,0)" xlink:href="#bt"/><use transform="matrix(0.017777777777777778,0,0,0.017777777777777778,25.20888888888889,0)" xlink:href="#bv"/></g><g id="at"><use transform="matrix(0.017777777777777778,0,0,0.017777777777777778,0,0)" xlink:href="#br"/><use transform="matrix(0.017777777777777778,0,0,0.017777777777777778,10.222222222222221,0)" xlink:href="#bR"/><use transform="matrix(0.017777777777777778,0,0,0.017777777777777778,20.551111111111112,0)" xlink:href="#bP"/></g><use transform="matrix(0.017777777777777778,0,0,0.017777777777777778,0,0)" xlink:href="#bp" id="au"/><g id="av"><use transform="matrix(0.017777777777777778,0,0,0.017777777777777778,0,0)" xlink:href="#bE"/><use transform="matrix(0.017777777777777778,0,0,0.017777777777777778,10.542222222222222,0)" xlink:href="#bp"/><use transform="matrix(0.017777777777777778,0,0,0.017777777777777778,19.89333333333333,0)" xlink:href="#bq"/><use transform="matrix(0.017777777777777778,0,0,0.017777777777777778,27.89333333333333,0)" xlink:href="#br"/></g><g id="aw"><use transform="matrix(0.017777777777777778,0,0,0.017777777777777778,0,0)" xlink:href="#bx"/><use transform="matrix(0.017777777777777778,0,0,0.017777777777777778,4.568888888888889,0)" xlink:href="#by"/><use transform="matrix(0.017777777777777778,0,0,0.017777777777777778,14.844444444444445,0)" xlink:href="#bq"/><use transform="matrix(0.017777777777777778,0,0,0.017777777777777778,22.844444444444445,0)" xlink:href="#bN"/><use transform="matrix(0.017777777777777778,0,0,0.017777777777777778,30.062222222222225,0)" xlink:href="#bp"/><use transform="matrix(0.017777777777777778,0,0,0.017777777777777778,39.413333333333334,0)" xlink:href="#by"/><use transform="matrix(0.017777777777777778,0,0,0.017777777777777778,49.68888888888889,0)" xlink:href="#bN"/><use transform="matrix(0.017777777777777778,0,0,0.017777777777777778,56.906666666666666,0)" xlink:href="#bq"/><use transform="matrix(0.017777777777777778,0,0,0.017777777777777778,64.90666666666667,0)" xlink:href="#bv"/><use transform="matrix(0.017777777777777778,0,0,0.017777777777777778,74.91555555555556,0)" xlink:href="#by"/><use transform="matrix(0.017777777777777778,0,0,0.017777777777777778,85.19111111111111,0)" xlink:href="#bE"/></g><g id="ax"><use transform="matrix(0.017777777777777778,0,0,0.017777777777777778,0,0)" xlink:href="#bN"/><use transform="matrix(0.017777777777777778,0,0,0.017777777777777778,7.52,0)" xlink:href="#bO"/></g><g id="ay"><use transform="matrix(0.017777777777777778,0,0,0.017777777777777778,0,0)" xlink:href="#bP"/><use transform="matrix(0.017777777777777778,0,0,0.017777777777777778,13.671111111111111,0)" xlink:href="#bR"/><use transform="matrix(0.017777777777777778,0,0,0.017777777777777778,24.23111111111111,0)" xlink:href="#bw"/><use transform="matrix(0.017777777777777778,0,0,0.017777777777777778,34.50666666666667,0)" xlink:href="#bV"/><use transform="matrix(0.017777777777777778,0,0,0.017777777777777778,39.431111111111115,0)" xlink:href="#bE"/></g><g id="az"><use transform="matrix(0.017777777777777778,0,0,0.017777777777777778,0,0)" xlink:href="#bq"/><use transform="matrix(0.017777777777777778,0,0,0.017777777777777778,8,0)" xlink:href="#bR"/><use transform="matrix(0.017777777777777778,0,0,0.017777777777777778,18.560000000000002,0)" xlink:href="#bV"/><use transform="matrix(0.017777777777777778,0,0,0.017777777777777778,23.484444444444446,0)" xlink:href="#bD"/><use transform="matrix(0.017777777777777778,0,0,0.017777777777777778,32.23111111111111,0)" xlink:href="#bv"/></g><g id="aA"><use transform="matrix(0.017777777777777778,0,0,0.017777777777777778,0,0)" xlink:href="#bN"/><use transform="matrix(0.017777777777777778,0,0,0.017777777777777778,7.217777777777778,0)" xlink:href="#br"/><use transform="matrix(0.017777777777777778,0,0,0.017777777777777778,17.439999999999998,0)" xlink:href="#bx"/><use transform="matrix(0.017777777777777778,0,0,0.017777777777777778,22.008888888888883,0)" xlink:href="#bq"/><use transform="matrix(0.017777777777777778,0,0,0.017777777777777778,30.008888888888883,0)" xlink:href="#bY"/></g><path d="M594-203C589-38 465 6 275 6 209 6 142 1 88-11v-672c188-30 472-44 472 165 1 79-42 125-99 148 77 24 136 68 133 167zm-100 1c0-142-168-119-310-121v244c136 8 310 16 310-123zm-34-309c0-119-159-112-276-104v214c128 0 276 15 276-110" id="cj"/><g id="aB"><use transform="matrix(0.017777777777777778,0,0,0.017777777777777778,0,0)" xlink:href="#cj"/><use transform="matrix(0.017777777777777778,0,0,0.017777777777777778,11.502222222222223,0)" xlink:href="#bw"/><use transform="matrix(0.017777777777777778,0,0,0.017777777777777778,21.77777777777778,0)" xlink:href="#bN"/></g><g id="aC"><use transform="matrix(0.017777777777777778,0,0,0.017777777777777778,0,0)" xlink:href="#bE"/><use transform="matrix(0.017777777777777778,0,0,0.017777777777777778,10.542222222222222,0)" xlink:href="#bw"/><use transform="matrix(0.017777777777777778,0,0,0.017777777777777778,20.817777777777778,0)" xlink:href="#bt"/><use transform="matrix(0.017777777777777778,0,0,0.017777777777777778,27.75111111111111,0)" xlink:href="#bx"/><use transform="matrix(0.017777777777777778,0,0,0.017777777777777778,32.32,0)" xlink:href="#by"/><use transform="matrix(0.017777777777777778,0,0,0.017777777777777778,42.595555555555556,0)" xlink:href="#bz"/></g><g id="aD"><use transform="matrix(0.017777777777777778,0,0,0.017777777777777778,0,0)" xlink:href="#bN"/><use transform="matrix(0.017777777777777778,0,0,0.017777777777777778,7.217777777777778,0)" xlink:href="#br"/><use transform="matrix(0.017777777777777778,0,0,0.017777777777777778,17.439999999999998,0)" xlink:href="#bv"/></g><g id="aE"><use transform="matrix(0.017777777777777778,0,0,0.017777777777777778,0,0)" xlink:href="#bx"/><use transform="matrix(0.017777777777777778,0,0,0.017777777777777778,4.568888888888889,0)" xlink:href="#bN"/></g><g id="aF"><use transform="matrix(0.017777777777777778,0,0,0.017777777777777778,0,0)" xlink:href="#bN"/><use transform="matrix(0.017777777777777778,0,0,0.017777777777777778,7.217777777777778,0)" xlink:href="#bp"/><use transform="matrix(0.017777777777777778,0,0,0.017777777777777778,16.56888888888889,0)" xlink:href="#bW"/><use transform="matrix(0.017777777777777778,0,0,0.017777777777777778,25.45777777777778,0)" xlink:href="#bv"/><use transform="matrix(0.017777777777777778,0,0,0.017777777777777778,35.46666666666667,0)" xlink:href="#bq"/></g><g id="aG"><use transform="matrix(0.017777777777777778,0,0,0.017777777777777778,0,0)" xlink:href="#bT"/><use transform="matrix(0.017777777777777778,0,0,0.017777777777777778,8.106666666666666,0)" xlink:href="#bR"/><use transform="matrix(0.017777777777777778,0,0,0.017777777777777778,18.666666666666664,0)" xlink:href="#by"/><use transform="matrix(0.017777777777777778,0,0,0.017777777777777778,28.942222222222224,0)" xlink:href="#bs"/><use transform="matrix(0.017777777777777778,0,0,0.017777777777777778,35.87555555555555,0)" xlink:href="#bx"/><use transform="matrix(0.017777777777777778,0,0,0.017777777777777778,40.44444444444444,0)" xlink:href="#bt"/><use transform="matrix(0.017777777777777778,0,0,0.017777777777777778,47.37777777777778,0)" xlink:href="#bu"/><use transform="matrix(0.017777777777777778,0,0,0.017777777777777778,62.75555555555557,0)" xlink:href="#bS"/></g><g id="aH"><use transform="matrix(0.017777777777777778,0,0,0.017777777777777778,0,0)" xlink:href="#bw"/><use transform="matrix(0.017777777777777778,0,0,0.017777777777777778,10.275555555555556,0)" xlink:href="#bq"/><use transform="matrix(0.017777777777777778,0,0,0.017777777777777778,18.275555555555556,0)" xlink:href="#bv"/><use transform="matrix(0.017777777777777778,0,0,0.017777777777777778,28.284444444444443,0)" xlink:href="#bt"/></g><g id="aI"><use transform="matrix(0.017777777777777778,0,0,0.017777777777777778,0,0)" xlink:href="#bT"/><use transform="matrix(0.017777777777777778,0,0,0.017777777777777778,8.337777777777777,0)" xlink:href="#bp"/><use transform="matrix(0.017777777777777778,0,0,0.017777777777777778,17.68888888888889,0)" xlink:href="#by"/></g><g id="aJ"><use transform="matrix(0.017777777777777778,0,0,0.017777777777777778,0,0)" xlink:href="#bT"/><use transform="matrix(0.017777777777777778,0,0,0.017777777777777778,8.106666666666666,0)" xlink:href="#bR"/><use transform="matrix(0.017777777777777778,0,0,0.017777777777777778,18.666666666666664,0)" xlink:href="#by"/><use transform="matrix(0.017777777777777778,0,0,0.017777777777777778,28.942222222222224,0)" xlink:href="#bN"/><use transform="matrix(0.017777777777777778,0,0,0.017777777777777778,36.16,0)" xlink:href="#bx"/><use transform="matrix(0.017777777777777778,0,0,0.017777777777777778,40.72888888888889,0)" xlink:href="#by"/><use transform="matrix(0.017777777777777778,0,0,0.017777777777777778,51.004444444444445,0)" xlink:href="#bw"/><use transform="matrix(0.017777777777777778,0,0,0.017777777777777778,61.28,0)" xlink:href="#bv"/></g><g id="aK"><use transform="matrix(0.017777777777777778,0,0,0.017777777777777778,0,0)" xlink:href="#bP"/><use transform="matrix(0.017777777777777778,0,0,0.017777777777777778,13.884444444444444,0)" xlink:href="#bx"/><use transform="matrix(0.017777777777777778,0,0,0.017777777777777778,18.453333333333333,0)" xlink:href="#bN"/><use transform="matrix(0.017777777777777778,0,0,0.017777777777777778,25.67111111111111,0)" xlink:href="#br"/></g><g id="aL"><use transform="matrix(0.017777777777777778,0,0,0.017777777777777778,0,0)" xlink:href="#bD"/><use transform="matrix(0.017777777777777778,0,0,0.017777777777777778,8.995555555555555,0)" xlink:href="#bx"/><use transform="matrix(0.017777777777777778,0,0,0.017777777777777778,13.564444444444444,0)" xlink:href="#bE"/><use transform="matrix(0.017777777777777778,0,0,0.017777777777777778,24.106666666666666,0)" xlink:href="#bv"/><use transform="matrix(0.017777777777777778,0,0,0.017777777777777778,34.11555555555555,0)" xlink:href="#bR"/><use transform="matrix(0.017777777777777778,0,0,0.017777777777777778,44.675555555555555,0)" xlink:href="#bY"/></g><g id="aM"><use transform="matrix(0.017777777777777778,0,0,0.017777777777777778,0,0)" xlink:href="#bP"/><use transform="matrix(0.017777777777777778,0,0,0.017777777777777778,13.884444444444444,0)" xlink:href="#bx"/><use transform="matrix(0.017777777777777778,0,0,0.017777777777777778,18.453333333333333,0)" xlink:href="#bV"/><use transform="matrix(0.017777777777777778,0,0,0.017777777777777778,23.377777777777776,0)" xlink:href="#bV"/></g><g id="aN"><use transform="matrix(0.017777777777777778,0,0,0.017777777777777778,0,0)" xlink:href="#bT"/><use transform="matrix(0.017777777777777778,0,0,0.017777777777777778,8.106666666666666,0)" xlink:href="#bR"/><use transform="matrix(0.017777777777777778,0,0,0.017777777777777778,18.666666666666664,0)" xlink:href="#bu"/><use transform="matrix(0.017777777777777778,0,0,0.017777777777777778,34.044444444444444,0)" xlink:href="#bQ"/><use transform="matrix(0.017777777777777778,0,0,0.017777777777777778,44.586666666666666,0)" xlink:href="#bx"/><use transform="matrix(0.017777777777777778,0,0,0.017777777777777778,49.155555555555544,0)" xlink:href="#by"/><use transform="matrix(0.017777777777777778,0,0,0.017777777777777778,59.431111111111115,0)" xlink:href="#bv"/></g><g id="aO"><use transform="matrix(0.017777777777777778,0,0,0.017777777777777778,0,0)" xlink:href="#bQ"/><use transform="matrix(0.017777777777777778,0,0,0.017777777777777778,10.542222222222222,0)" xlink:href="#bR"/><use transform="matrix(0.017777777777777778,0,0,0.017777777777777778,21.10222222222222,0)" xlink:href="#bN"/><use transform="matrix(0.017777777777777778,0,0,0.017777777777777778,28.32,0)" xlink:href="#br"/></g><g id="aP"><use transform="matrix(0.017777777777777778,0,0,0.017777777777777778,0,0)" xlink:href="#br"/><use transform="matrix(0.017777777777777778,0,0,0.017777777777777778,10.222222222222221,0)" xlink:href="#bp"/><use transform="matrix(0.017777777777777778,0,0,0.017777777777777778,19.57333333333333,0)" xlink:href="#bq"/><use transform="matrix(0.017777777777777778,0,0,0.017777777777777778,27.57333333333333,0)" xlink:href="#br"/><use transform="matrix(0.017777777777777778,0,0,0.017777777777777778,37.79555555555555,0)" xlink:href="#bv"/><use transform="matrix(0.017777777777777778,0,0,0.017777777777777778,47.80444444444444,0)" xlink:href="#bq"/><use transform="matrix(0.017777777777777778,0,0,0.017777777777777778,55.80444444444444,0)" xlink:href="#bS"/></g><g id="aQ"><use transform="matrix(0.017777777777777778,0,0,0.017777777777777778,0,0)" xlink:href="#bN"/><use transform="matrix(0.017777777777777778,0,0,0.017777777777777778,7.217777777777778,0)" xlink:href="#cc"/><use transform="matrix(0.017777777777777778,0,0,0.017777777777777778,16.124444444444443,0)" xlink:href="#bx"/><use transform="matrix(0.017777777777777778,0,0,0.017777777777777778,20.69333333333333,0)" xlink:href="#by"/><use transform="matrix(0.017777777777777778,0,0,0.017777777777777778,30.968888888888888,0)" xlink:href="#bz"/></g><g id="aR"><use transform="matrix(0.017777777777777778,0,0,0.017777777777777778,0,0)" xlink:href="#bx"/><use transform="matrix(0.017777777777777778,0,0,0.017777777777777778,4.568888888888889,0)" xlink:href="#by"/><use transform="matrix(0.017777777777777778,0,0,0.017777777777777778,14.844444444444445,0)" xlink:href="#bN"/><use transform="matrix(0.017777777777777778,0,0,0.017777777777777778,21.813333333333333,0)" xlink:href="#bR"/></g><g id="aS"><use transform="matrix(0.017777777777777778,0,0,0.017777777777777778,0,0)" xlink:href="#bT"/><use transform="matrix(0.017777777777777778,0,0,0.017777777777777778,8.337777777777777,0)" xlink:href="#bt"/><use transform="matrix(0.017777777777777778,0,0,0.017777777777777778,15.644444444444444,0)" xlink:href="#cc"/><use transform="matrix(0.017777777777777778,0,0,0.017777777777777778,24.551111111111112,0)" xlink:href="#cb"/><use transform="matrix(0.017777777777777778,0,0,0.017777777777777778,35.093333333333334,0)" xlink:href="#bN"/><use transform="matrix(0.017777777777777778,0,0,0.017777777777777778,42.06222222222221,0)" xlink:href="#bR"/></g><g id="aT"><use transform="matrix(0.017777777777777778,0,0,0.017777777777777778,0,0)" xlink:href="#bL"/><use transform="matrix(0.017777777777777778,0,0,0.017777777777777778,12.302222222222222,0)" xlink:href="#bq"/><use transform="matrix(0.017777777777777778,0,0,0.017777777777777778,20.30222222222222,0)" xlink:href="#bx"/><use transform="matrix(0.017777777777777778,0,0,0.017777777777777778,24.87111111111111,0)" xlink:href="#by"/><use transform="matrix(0.017777777777777778,0,0,0.017777777777777778,35.14666666666666,0)" xlink:href="#bz"/></g><use transform="matrix(0.017777777777777778,0,0,0.017777777777777778,0,0)" xlink:href="#ca" id="aU"/><g id="aV"><use transform="matrix(0.017777777777777778,0,0,0.017777777777777778,0,0)" xlink:href="#bQ"/><use transform="matrix(0.017777777777777778,0,0,0.017777777777777778,10.542222222222222,0)" xlink:href="#bx"/><use transform="matrix(0.017777777777777778,0,0,0.017777777777777778,15.11111111111111,0)" xlink:href="#bN"/></g><g id="aW"><use transform="matrix(0.017777777777777778,0,0,0.017777777777777778,0,0)" xlink:href="#bT"/><use transform="matrix(0.017777777777777778,0,0,0.017777777777777778,8.337777777777777,0)" xlink:href="#br"/><use transform="matrix(0.017777777777777778,0,0,0.017777777777777778,18.56,0)" xlink:href="#bw"/><use transform="matrix(0.017777777777777778,0,0,0.017777777777777778,28.835555555555555,0)" xlink:href="#by"/><use transform="matrix(0.017777777777777778,0,0,0.017777777777777778,39.111111111111114,0)" xlink:href="#bW"/><use transform="matrix(0.017777777777777778,0,0,0.017777777777777778,48.46222222222222,0)" xlink:href="#bq"/><use transform="matrix(0.017777777777777778,0,0,0.017777777777777778,56.46222222222222,0)" xlink:href="#bS"/></g><g id="aX"><use transform="matrix(0.017777777777777778,0,0,0.017777777777777778,0,0)" xlink:href="#bu"/><use transform="matrix(0.017777777777777778,0,0,0.017777777777777778,15.377777777777778,0)" xlink:href="#bp"/><use transform="matrix(0.017777777777777778,0,0,0.017777777777777778,24.72888888888889,0)" xlink:href="#bN"/><use transform="matrix(0.017777777777777778,0,0,0.017777777777777778,31.715555555555557,0)" xlink:href="#bT"/><use transform="matrix(0.017777777777777778,0,0,0.017777777777777778,40.05333333333333,0)" xlink:href="#br"/></g><g id="aY"><use transform="matrix(0.017777777777777778,0,0,0.017777777777777778,0,0)" xlink:href="#bv"/><use transform="matrix(0.017777777777777778,0,0,0.017777777777777778,10.008888888888889,0)" xlink:href="#bp"/><use transform="matrix(0.017777777777777778,0,0,0.017777777777777778,19.36,0)" xlink:href="#bT"/><use transform="matrix(0.017777777777777778,0,0,0.017777777777777778,27.697777777777777,0)" xlink:href="#br"/></g><g id="aZ"><use transform="matrix(0.017777777777777778,0,0,0.017777777777777778,0,0)" xlink:href="#bT"/><use transform="matrix(0.017777777777777778,0,0,0.017777777777777778,8.337777777777777,0)" xlink:href="#br"/><use transform="matrix(0.017777777777777778,0,0,0.017777777777777778,18.56,0)" xlink:href="#bw"/><use transform="matrix(0.017777777777777778,0,0,0.017777777777777778,28.835555555555555,0)" xlink:href="#by"/><use transform="matrix(0.017777777777777778,0,0,0.017777777777777778,39.111111111111114,0)" xlink:href="#bW"/></g><g id="ba"><use transform="matrix(0.017777777777777778,0,0,0.017777777777777778,0,0)" xlink:href="#bN"/><use transform="matrix(0.017777777777777778,0,0,0.017777777777777778,6.9688888888888885,0)" xlink:href="#bR"/></g><g id="bb"><use transform="matrix(0.017777777777777778,0,0,0.017777777777777778,0,0)" xlink:href="#cb"/><use transform="matrix(0.017777777777777778,0,0,0.017777777777777778,10.542222222222222,0)" xlink:href="#bt"/><use transform="matrix(0.017777777777777778,0,0,0.017777777777777778,17.475555555555555,0)" xlink:href="#bv"/><use transform="matrix(0.017777777777777778,0,0,0.017777777777777778,27.484444444444442,0)" xlink:href="#bE"/><use transform="matrix(0.017777777777777778,0,0,0.017777777777777778,38.026666666666664,0)" xlink:href="#bv"/><use transform="matrix(0.017777777777777778,0,0,0.017777777777777778,48.035555555555554,0)" xlink:href="#bs"/><use transform="matrix(0.017777777777777778,0,0,0.017777777777777778,54.968888888888884,0)" xlink:href="#bx"/><use transform="matrix(0.017777777777777778,0,0,0.017777777777777778,59.53777777777778,0)" xlink:href="#by"/><use transform="matrix(0.017777777777777778,0,0,0.017777777777777778,69.81333333333333,0)" xlink:href="#bv"/><use transform="matrix(0.017777777777777778,0,0,0.017777777777777778,79.82222222222222,0)" xlink:href="#bE"/></g><g id="bc"><use transform="matrix(0.017777777777777778,0,0,0.017777777777777778,0,0)" xlink:href="#bT"/><use transform="matrix(0.017777777777777778,0,0,0.017777777777777778,8.533333333333333,0)" xlink:href="#cc"/><use transform="matrix(0.017777777777777778,0,0,0.017777777777777778,17.439999999999998,0)" xlink:href="#cb"/><use transform="matrix(0.017777777777777778,0,0,0.017777777777777778,27.98222222222222,0)" xlink:href="#br"/><use transform="matrix(0.017777777777777778,0,0,0.017777777777777778,38.20444444444444,0)" xlink:href="#bv"/><use transform="matrix(0.017777777777777778,0,0,0.017777777777777778,48.21333333333333,0)" xlink:href="#bt"/></g><g id="bd"><use transform="matrix(0.018,0,0,0.018,0,0)" xlink:href="#bM"/><use transform="matrix(0.018,0,0,0.018,13.175999999999998,0)" xlink:href="#bR"/><use transform="matrix(0.018,0,0,0.018,23.615999999999993,0)" xlink:href="#bD"/><use transform="matrix(0.018,0,0,0.018,32.724,0)" xlink:href="#bp"/></g><g id="be"><use transform="matrix(0.018,0,0,0.018,0,0)" xlink:href="#bK"/><use transform="matrix(0.018,0,0,0.018,9.521999999999998,0)" xlink:href="#bt"/><use transform="matrix(0.018,0,0,0.018,16.541999999999998,0)" xlink:href="#bp"/><use transform="matrix(0.018,0,0,0.018,26.009999999999998,0)" xlink:href="#bw"/><use transform="matrix(0.018,0,0,0.018,36.414,0)" xlink:href="#bQ"/><use transform="matrix(0.018,0,0,0.018,47.08800000000001,0)" xlink:href="#bv"/><use transform="matrix(0.018,0,0,0.018,57.222,0)" xlink:href="#by"/></g><path d="M887-322c0 152-52 270-195 279-42 3-68-13-88-33-27 15-73 29-115 29-142-5-217-87-217-232 0-144 83-227 228-232 57-1 121 11 159 24v306c-9 61 52 72 85 40 40-38 57-109 57-187 0-191-121-306-316-306-216 0-332 136-332 356C153-51 277 71 501 77c57 1 112-8 147-18l10 74c-34 11-105 21-157 20C227 145 67 2 67-278c0-271 154-431 418-431 187 0 309 92 370 225 21 48 32 102 32 162zm-521 43c0 120 98 191 207 137-11-86-2-192-5-286-118-30-202 36-202 149" id="ck"/><g id="bf"><use transform="matrix(0.018,0,0,0.018,0,0)" xlink:href="#bN"/><use transform="matrix(0.018,0,0,0.018,7.308,0)" xlink:href="#bt"/><use transform="matrix(0.018,0,0,0.018,14.328,0)" xlink:href="#bp"/><use transform="matrix(0.018,0,0,0.018,23.796,0)" xlink:href="#bw"/><use transform="matrix(0.018,0,0,0.018,34.2,0)" xlink:href="#bQ"/><use transform="matrix(0.018,0,0,0.018,44.874,0)" xlink:href="#bv"/><use transform="matrix(0.018,0,0,0.018,55.008,0)" xlink:href="#by"/><use transform="matrix(0.018,0,0,0.018,65.412,0)" xlink:href="#by"/><use transform="matrix(0.018,0,0,0.018,75.81600000000002,0)" xlink:href="#ck"/><use transform="matrix(0.018,0,0,0.018,92.988,0)" xlink:href="#bP"/><use transform="matrix(0.018,0,0,0.018,107.04599999999999,0)" xlink:href="#bx"/><use transform="matrix(0.018,0,0,0.018,111.672,0)" xlink:href="#bN"/><use transform="matrix(0.018,0,0,0.018,119.178,0)" xlink:href="#bY"/><use transform="matrix(0.018,0,0,0.018,123.678,0)" xlink:href="#bv"/><use transform="matrix(0.018,0,0,0.018,133.81199999999998,0)" xlink:href="#bE"/><use transform="matrix(0.018,0,0,0.018,144.486,0)" xlink:href="#bw"/></g><g id="bg"><use transform="matrix(0.017777777777777778,0,0,0.017777777777777778,0,0)" xlink:href="#ce"/><use transform="matrix(0.017777777777777778,0,0,0.017777777777777778,10.826666666666666,0)" xlink:href="#bR"/><use transform="matrix(0.017777777777777778,0,0,0.017777777777777778,21.386666666666667,0)" xlink:href="#by"/><use transform="matrix(0.017777777777777778,0,0,0.017777777777777778,31.377777777777784,0)" xlink:href="#bD"/><use transform="matrix(0.017777777777777778,0,0,0.017777777777777778,40.12444444444445,0)" xlink:href="#bv"/><use transform="matrix(0.017777777777777778,0,0,0.017777777777777778,50.13333333333334,0)" xlink:href="#bt"/><use transform="matrix(0.017777777777777778,0,0,0.017777777777777778,57.06666666666668,0)" xlink:href="#bN"/></g><g id="bh"><use transform="matrix(0.017777777777777778,0,0,0.017777777777777778,0,0)" xlink:href="#bA"/><use transform="matrix(0.017777777777777778,0,0,0.017777777777777778,11.28888888888889,0)" xlink:href="#bB"/><use transform="matrix(0.017777777777777778,0,0,0.017777777777777778,21.386666666666667,0)" xlink:href="#bB"/></g><g id="bi"><use transform="matrix(0.017777777777777778,0,0,0.017777777777777778,0,0)" xlink:href="#bR"/><use transform="matrix(0.017777777777777778,0,0,0.017777777777777778,10.56,0)" xlink:href="#bs"/></g><g id="bj"><use transform="matrix(0.017777777777777778,0,0,0.017777777777777778,0,0)" xlink:href="#bp"/><use transform="matrix(0.017777777777777778,0,0,0.017777777777777778,9.351111111111111,0)" xlink:href="#by"/><use transform="matrix(0.017777777777777778,0,0,0.017777777777777778,19.626666666666665,0)" xlink:href="#bE"/></g><g id="bk"><use transform="matrix(0.017777777777777778,0,0,0.017777777777777778,0,0)" xlink:href="#bQ"/><use transform="matrix(0.017777777777777778,0,0,0.017777777777777778,10.542222222222222,0)" xlink:href="#bV"/><use transform="matrix(0.017777777777777778,0,0,0.017777777777777778,15.466666666666665,0)" xlink:href="#bR"/><use transform="matrix(0.017777777777777778,0,0,0.017777777777777778,26.026666666666664,0)" xlink:href="#bT"/><use transform="matrix(0.017777777777777778,0,0,0.017777777777777778,34.364444444444445,0)" xlink:href="#bW"/><use transform="matrix(0.017777777777777778,0,0,0.017777777777777778,43.715555555555554,0)" xlink:href="#br"/><use transform="matrix(0.017777777777777778,0,0,0.017777777777777778,53.937777777777775,0)" xlink:href="#bp"/><use transform="matrix(0.017777777777777778,0,0,0.017777777777777778,63.28888888888888,0)" xlink:href="#bq"/><use transform="matrix(0.017777777777777778,0,0,0.017777777777777778,71.28888888888889,0)" xlink:href="#br"/></g><g id="bl"><use transform="matrix(0.017777777777777778,0,0,0.017777777777777778,0,0)" xlink:href="#bQ"/><use transform="matrix(0.017777777777777778,0,0,0.017777777777777778,10.542222222222222,0)" xlink:href="#bx"/><use transform="matrix(0.017777777777777778,0,0,0.017777777777777778,15.11111111111111,0)" xlink:href="#by"/><use transform="matrix(0.017777777777777778,0,0,0.017777777777777778,25.386666666666667,0)" xlink:href="#bp"/><use transform="matrix(0.017777777777777778,0,0,0.017777777777777778,34.73777777777778,0)" xlink:href="#bt"/><use transform="matrix(0.017777777777777778,0,0,0.017777777777777778,42.04444444444445,0)" xlink:href="#cc"/></g><g id="bm"><use transform="matrix(0.017777777777777778,0,0,0.017777777777777778,0,0)" xlink:href="#bC"/><use transform="matrix(0.017777777777777778,0,0,0.017777777777777778,9.528888888888888,0)" xlink:href="#bN"/><use transform="matrix(0.017777777777777778,0,0,0.017777777777777778,16.497777777777777,0)" xlink:href="#bR"/><use transform="matrix(0.017777777777777778,0,0,0.017777777777777778,27.057777777777776,0)" xlink:href="#cb"/></g><g id="bn"><use transform="matrix(0.017777777777777778,0,0,0.017777777777777778,0,0)" xlink:href="#bC"/><use transform="matrix(0.017777777777777778,0,0,0.017777777777777778,9.528888888888888,0)" xlink:href="#bN"/><use transform="matrix(0.017777777777777778,0,0,0.017777777777777778,16.746666666666666,0)" xlink:href="#bp"/><use transform="matrix(0.017777777777777778,0,0,0.017777777777777778,26.09777777777778,0)" xlink:href="#bt"/><use transform="matrix(0.017777777777777778,0,0,0.017777777777777778,33.031111111111116,0)" xlink:href="#bN"/></g></defs></g></svg>